<svg version="1" xmlns="http://www.w3.org/2000/svg" width="853.333" height="853.333" viewBox="0 0 640.000000 640.000000"><path d="M317.7 19.6c-.4.5-1.5.9-2.5 1-.9.2-1.8.8-2 1.3-.2.6-1.6 1.1-3 1.1-1.5 0-4.7 1.1-7.1 2.5-2.3 1.4-4.8 2.5-5.5 2.5-1.8 0-6.6 2.4-6.6 3.2 0 .5-.8.8-1.7.8-1 0-3.1.7-4.8 1.6-1.6.9-7 3.1-12 5-4.9 1.9-10.2 4-11.7 4.6-1.6.6-2.8 1.4-2.8 1.9s-.9.9-2 .9-2 .4-2 .9-.8.8-1.7.6c-1-.1-2.7.3-3.8.9-1.1.7-4.4 2-7.4 3s-6.9 2.9-8.7 4.3c-1.8 1.3-3.8 2.2-4.4 1.8-.5-.3-1.3.1-1.6.9-.3.9-1 1.4-1.4 1.1-.9-.6-11.9 3.3-18.6 6.6-2.2 1.1-4.5 1.9-5 1.8C200 67.6 191 72 191 73c0 .4-.9.6-2 .3-1.2-.3-2 0-2 .6 0 .7-.4.9-1 .6-.5-.3-1-.1-1 .5 0 .7-.7.9-1.7.6-.9-.4-2-.1-2.4.5-.4.6-1.8 1.3-3.1 1.4-1.4.2-3.9 1-5.6 1.9-1.7.9-5.2 2.3-7.8 3.2-2.6.9-5.4 2.2-6.1 3-.8.8-2.4 1.4-3.7 1.4-1.2 0-2.7.5-3.4 1.2-.7.7-1.2.8-1.2.4s-1.6.2-3.5 1.4c-3 1.9-6.2 3.1-11.5 4.5-.8.2-4.2 1.5-7.5 2.9s-6.6 2.6-7.3 2.6c-.8 0-1 .5-.6 1.2.5.7.2.9-.8.5-.9-.3-3.7.5-6.2 1.9-2.5 1.3-4.8 2.4-5.1 2.4-.3.1-2.5.9-5.1 2-2.5 1.1-5 2-5.5 2s-3.2 1.1-6 2.5c-2.9 1.3-5.5 2.3-5.9 2-.4-.2-2.7.6-5.1 1.9-2.4 1.3-5.5 2.7-6.9 3.1-1.4.4-3.6 1.6-5 2.5-1.4 1-2.8 1.8-3.2 1.9-1.8.3-4.5 1.3-6.8 2.5-1.4.7-3.6 1.6-5 2-1.4.3-4 1.8-5.7 3.4-3 2.5-3.2 2.9-2 5.2.7 1.4 4 4 7.4 5.9 6.9 3.8 7.1 4.2 8.7 20.1.4 3.5-1 14.2-2.1 17-.3.8-.7 1.9-.7 2.3-.2 1.8-4.6 5.3-8.2 6.6-5.4 1.9-7.1 3.6-7.2 7.5-.1 2.8.5 3.8 4.1 6.3 4.1 2.9 7.8 4.4 12.6 4.9 1.3.2 2.7.7 3 1.2.3.5 2.4 1.5 4.6 2.2 2.2.7 5.5 2.1 7.2 3.1 1.8 1 3.3 1.6 3.3 1.3 0-.3 1.8.5 4 1.7 4.7 2.7 5.1 4.9 1.4 8.5-1.9 2-3.1 2.4-5.1 1.9-1.8-.4-3.6.1-6.5 2-3.6 2.4-3.9 2.9-3.2 5.8.3 1.8 1.1 3.5 1.7 3.9.6.4 2.5 2.9 4.1 5.6 4.3 7 10.5 16 14.1 20.7 1.7 2.2 4.1 5.6 5.2 7.6 1.1 2 3.1 4.8 4.4 6.3 1.3 1.5 4.2 5.6 6.4 9.2 3.6 5.8 8.7 13.4 16.7 25.1 1.5 2.3 2.8 4.5 2.8 5 0 .4 3.3 4.2 7.3 8.4 6.5 7 12.5 10.8 14.1 9.1.4-.3 1.3-.7 2-.8.7-.1 2.6-.5 4.2-.8 1.6-.3 3.5-.2 4.3.3 1.1.7.4 1.6-2.8 3.9-2.3 1.7-5.9 4.5-7.9 6.2-3.1 2.6-19.2 14.6-26.8 20-10.3 7.2-29.9 23-37.1 29.7C80 396 78.5 397 78 397s-1.3.6-1.7 1.3c-.4.7-3 2.7-5.8 4.5-6.2 3.9-7 4.5-21.9 15.7-6.7 5-13.8 10.1-15.9 11.5-2 1.4-4 3.3-4.3 4.2-.3 1-1 1.8-1.6 1.8-.5 0-.8.7-.5 1.5.4.8.3 1.7-.2 1.9-.4.3-.6 1.9-.3 3.6.3 2.4-.4 4.2-3.8 8.6-3.9 5.1-13.2 12.3-15.2 11.7-.4-.2-.8.2-.8.7 0 .6-.7 1-1.5 1s-2.2 1.1-3.1 2.5c-2.4 3.7-1.1 7.2 3.4 9.3 2 .9 4 2.1 4.3 2.6.4.5 1.1.6 1.7.2.6-.3 1.3-.2 1.7.4.4.6 1 .8 1.5.5.4-.3 3.9.5 7.7 1.7 3.7 1.1 7.5 2.2 8.3 2.3.8.1 2.5.7 3.7 1.3 1.2.7 2.9 1.2 3.7 1.2.9 0 4.4.9 7.8 2 3.5 1 10.4 3.1 15.3 4.5 11.1 3.2 23 6.9 27 8.3 3.1 1.2 20.4 5.9 24 6.6 1.1.2 3.4 1.1 5 2 1.7.9 3.5 1.6 4.1 1.6.6 0 4.6 1.1 8.8 2.5 4.3 1.4 8.2 2.3 8.7 2 .5-.4.9-.2.9.4 0 .6 1.9 1.5 4.3 2.1 5.6 1.5 14.8 4.1 16.7 4.8.8.3 1.7.6 2 .7 5.7 1.5 7 2.7 7 6.4 0 1.4 1.4 3.7 3.6 5.7 3.8 3.7 15.5 9.9 20.1 10.8 1.5.3 5.2 1.2 8.2 2.1 5.8 1.6 15.1 2.9 19.1 2.6 1.4-.1 4.5-.7 6.9-1.4 4.2-1.3 4.9-1.2 16.9 3 6.9 2.3 13 4.7 13.6 5.2.6.6 2.3 1.2 3.7 1.4 1.5.3 4.5 1.5 6.7 2.6 2.3 1.2 4.8 2.1 5.7 2.1.8 0 3.5.9 5.8 2 2.4 1.1 5.2 2.2 6.3 2.5 1 .2 4.6 1.5 7.9 2.9 3.2 1.3 6.3 2.2 6.7 2 .4-.3.8-.1.8.4s1.5 1.5 3.3 2.2c1.7.6 5.5 2.2 8.2 3.5 2.8 1.3 6.2 2.5 7.6 2.7 1.4.2 3.7 1.1 5.1 2 1.4 1 3.9 2 5.4 2.4 1.6.4 3.7 1.4 4.7 2.2.9.8 1.7 1.2 1.7.9 0-.3 2.7.5 6 1.8s6 2.2 6 1.9c0-.2 1.6.5 3.6 1.6 1.9 1.1 3.9 1.8 4.5 1.5.5-.4.9-.2.9.4 0 .7 9.9 4.7 10.7 4.3.1 0 3.6 1.7 7.8 3.9 4.1 2.1 7.8 3.8 8.3 3.7 1-.2 8.6 3.5 9 4.5.2.4.8.5 1.2.2.5-.3 2.6.4 4.7 1.5 2.1 1 4.8 2.1 6.1 2.3 1.2.2 2.8.9 3.4 1.5 2.8 2.8 8-.1 18.3-10.3 2.3-2.2 7.2-6.2 11-8.9 6.1-4.3 12-9 17.6-14.2.9-.7 1.9-1.4 2.4-1.4.4 0 2-1.2 3.4-2.8 1.5-1.5 4.6-4.3 7-6.2 2.4-1.9 7-5.8 10.3-8.5 3.2-2.8 8-6.5 10.6-8.3 2.6-1.9 7-5.4 9.9-7.8 2.8-2.4 5.5-4.4 6-4.4s1.6-.8 2.5-1.8c.9-.9 3.1-2.8 4.9-4.2 1.7-1.4 3.7-3 4.3-3.6.6-.5 3.8-3 7.1-5.4 3.3-2.4 6.2-4.6 6.5-4.9.3-.3 3.2-2.6 6.5-5 3.3-2.5 6.5-5 7-5.5.6-.6 3.2-2.7 5.8-4.6 2.7-1.9 5.8-4.4 7-5.5 1.2-1.1 3.1-2.7 4.3-3.5 1.2-.8 6.5-4.9 11.9-9 11.7-9.1 18.8-14.3 23.6-17.5 2-1.3 6.2-4.6 9.4-7.4 3.2-2.8 6.2-5.1 6.6-5.1.5 0 3.2-2.1 6.1-4.6 2.9-2.5 7-6 9.1-7.7 2.1-1.8 4.4-3.7 5.1-4.3.6-.6 2.1-1.6 3.3-2.2 1.2-.7 2.1-2 2.1-3-.1-.9.2-2.7.6-3.9.6-1.9.3-2.3-2.1-2.8-4.8-1-9.2-3.7-11.8-7.1-1.4-1.8-2.5-3.6-2.5-4.1 0-.4-1.4-2.8-3-5.2-1.7-2.4-3-5.2-3-6.1 0-.9-.8-2.4-1.8-3.4-1.1-.9-2.4-3.4-3.1-5.6-.6-2.1-1.7-4.5-2.4-5.2-.6-.8-1.7-2.2-2.3-3.3-.7-1.2-2.4-2-5.3-2.2-2.4-.2-5.4-1.1-6.7-2-1.3-.8-2.4-1.3-2.4-.9 0 .3-1.7-.3-3.7-1.4-2.1-1.1-4.3-2-4.9-2-.6 0-2.2-.8-3.5-1.9-1.3-1-3.5-2.2-4.9-2.6-1.4-.4-6.5-2.7-11.5-5-4.9-2.3-12.4-5.6-16.5-7.4-4.1-1.8-9.5-4.2-12-5.3-2.5-1.1-7.2-3.1-10.5-4.3-3.3-1.3-7.8-3.2-10-4.3-6.7-3.4-10.8-5.2-11.7-5.2-.6 0-3.9-1.4-7.5-3-3.6-1.7-6.8-2.8-7.1-2.6-.2.3-1.7-.1-3.3-1-1.6-.8-2.9-1.2-2.9-.8 0 .4-.6.1-1.4-.5-1.5-1.3-10.9-3.9-16.3-4.6-1.8-.2-3.9-.7-4.5-1.1-.6-.4-4.8-.9-9.2-1-4.5-.2-10.3-.6-13.1-.8-2.7-.3-8.4-.6-12.5-.7l-7.4-.2-6.2-6.2c-3.5-3.4-9.1-7.5-12.6-9.3-3.5-1.8-7.4-3.8-8.8-4.6-2.4-1.3-12.4-4.6-18.5-6.1-3.2-.8-4.3-1-11.9-2.2-7.4-1.2-6.7-3.6 1.4-4.8.8-.1 2.6-.5 4-.8 6.1-1.4 7.6-1.7 11-1.8 1.9-.1 5.1-.5 7-1 1.9-.4 6-1.1 9-1.4 3-.4 5.8-.9 6.1-1 .5-.4 4.3-.9 13.8-2 2.3-.3 4.7-.8 5.2-1.1.5-.3 3.5-.7 6.7-.9 3.1-.2 8.2-.9 11.2-1.6 3-.6 6.7-1.3 8.1-1.4 1.5-.2 3.9-.6 5.5-.9 4.9-1.1 9.7-1.8 13.9-2.1 2.2-.1 5.1-.5 6.5-.9 1.4-.3 4.3-.8 6.5-1.2 2.2-.3 4.7-.7 5.5-.9.8-.2 4-.6 7-.9 3-.4 7.1-1.1 9-1.6 3.8-.9 19-3.3 23-3.5 4.6-.3 6.5-1.5 8.5-5.1 1-2 2-4.2 2.1-4.9.1-.8.9-2.8 1.8-4.5.8-1.7 1.3-3.7 1-4.5-.3-.8-.2-2 .2-2.7 1.1-1.8 1.3-3.2 1.7-11.5.2-4 .6-7.5.8-7.8.8-.7-1-13.5-2.2-16.6-.6-1.5-1.2-4.5-1.3-6.8-.2-2.3-1-4.9-1.8-5.9-.8-.9-1.8-2.4-2.1-3.4-.5-1.3-1.2-1.5-4.4-.8-3.7.9-5.6.2-5.9-2.1-.1-.5-.2-1.3-.3-1.7 0-.5-2.5-2.2-5.3-3.7-2.9-1.6-6.3-3.5-7.4-4.4-1.2-.9-3.2-2.3-4.4-3.1-1.3-.8-3.5-2.5-5-3.8-1.5-1.2-3.2-2.2-3.6-2.2-.5 0-2.1-1.1-3.7-2.4-1.5-1.3-4.3-3.4-6.2-4.7-1.9-1.3-3.5-2.7-3.5-3.1 0-1.3 5.7-4.7 8.7-5.2 5.4-1 16.4-5.9 18.3-8.1.7-.9 2-1.3 2.9-1 2.3.7 12.3-5.6 12.8-8 1.9-9.9 2.4-23.5.8-23.5-.7 0-.7-.3 0-.8 1.2-.8 1.3-4.2.2-5.9-.4-.7-1-3.4-1.3-6-.3-2.7-1.4-8-2.4-11.8-4.1-15.3-4.7-16.5-8.4-15.8-1.7.4-2.7-.1-3.6-1.6-.6-1.2-.9-2.5-.6-2.9.9-1.5-1.1-3.3-4.1-3.6-1.7-.2-4.4-1.1-6.1-2-1.6-.8-4.3-1.8-5.8-2.1-3-.5-19.3-5.4-25.4-7.5-12.2-4.3-14.4-5-16.5-5-1.3 0-4.5-1-7.2-2.1-2.6-1.2-5.5-2.2-6.3-2.3-.8-.1-2.6-.7-4-1.3-1.4-.6-5-1.8-8-2.8-3-.9-6.8-2.3-8.5-3-2.4-1.1-11.5-3.7-17-4.9-.5-.2-2.3-.8-4-1.6-4.9-2.1-10.5-4.1-11.2-4.1-.2 0-1.7-.5-3.5-1-1.8-.6-4-1.2-4.8-1.4-.8-.2-2.8-.9-4.5-1.5-1.6-.6-4.2-1.3-5.7-1.5-1.6-.2-4.3-1.1-6-1.9-1.8-.8-5.1-2-7.3-2.6-2.2-.7-6.2-2-9-3-2.7-1-6.6-2.1-8.6-2.3-2-.2-4.7-1.1-6-1.9-2.6-1.6-9-2.3-10.2-1.2zm9.4 13c2.3.3 5.1 1.1 6.3 1.8 1.1.8 3.5 1.7 5.1 2.1 1.7.5 3.2.9 3.5 1 .3.1 2.6.7 5.3 1.5 2.6.7 4.7 1.6 4.7 2 0 .5 1.8 1.1 4 1.5 2.2.4 6.4 1.6 9.3 2.7 2.8 1.1 6.4 2.1 7.8 2.2 1.4.2 3.5.8 4.7 1.5 1.2.6 2.5 1 2.9.9.4-.1 2.2.5 3.8 1.4 1.7.9 4.4 1.8 6 2.1 1.7.2 4.4.9 6 1.6 4.7 2.1 20.8 7.3 23.1 7.6 1.2.2 3 .7 4 1.3 1.1.5 3.8 1.3 6.1 1.7 2.4.4 4.5 1.1 4.9 1.6.3.5 1.6.9 3 .9s2.2.4 1.9 1c-.4.6.8 1 3 1 2 0 4.6.5 5.8 1.2 1.2.7 3 1.3 4 1.5 2.5.4 5.7 2.2 5.7 3.1 0 1.2-9.4 5.7-31 15-11.7 5.1-14.7 6.3-16.5 6.7-.5.2-5.7 2.5-11.5 5.3s-15.7 7.2-22 10c-6.3 2.7-14.6 6.4-18.5 8.2-3.8 1.8-9.5 4.3-12.5 5.7-3 1.3-6.9 3.1-8.7 3.9-1.7.8-3.8 1.4-4.6 1.4-.8 0-2 .6-2.6 1.4-.7.8-2.4 1.7-3.8 2.1-1.5.3-5 1.7-7.8 3-2.7 1.3-6.5 2.9-8.2 3.5-1.8.7-3.3 1.6-3.3 2.1s-.3.8-.7.7c-.5-.1-1.9.4-3.3.9-1.4.6-6 2.5-10.2 4.2-4.3 1.7-8.6 3.5-9.5 4-1 .5-3.8 1.7-6.3 2.7-2.5 1-7.9 3.3-12 5.2-4.1 1.9-9.7 4.2-12.5 5.2-2.7 1-8.4 3.3-12.5 5.3-6.3 2.9-19.1 8.6-25 11.1-.8.3-2.2 1-3 1.5-.8.5-4 1.9-7 3.1-3 1.2-6.4 3.1-7.6 4.1-2.6 2.4-4.3 2.4-9.6 0-2.4-1.1-5-2.2-5.8-2.5-.8-.3-2.2-1-3-1.5-2.1-1.4-12.7-6.1-13.6-6.1-.4 0-2.6-.9-4.8-1.9-2.3-1-7-3.1-10.6-4.6-3.6-1.5-8.8-3.8-11.5-5.1-2.8-1.3-5.3-2.4-5.7-2.4-.7 0-14-6-24.8-11.3-3.6-1.7-6.7-3.1-7-3-.3.1-1.6-.5-3-1.2s-3.6-1.7-5-2.3c-1.4-.6-4.6-2-7.2-3.1-2.6-1.2-5.2-2.1-5.7-2.1-.6 0-1.1-.5-1.1-1 0-.6-.9-1-1.9-1-1 0-2.9-.9-4.2-1.9l-2.4-1.9 3.4-3.1c1.9-1.7 4.3-3.1 5.3-3.1s1.8-.4 1.8-.9 1.1-.9 2.4-.9c1.3 0 3.9-.7 5.6-1.6 1.8-.9 3.9-1.6 4.7-1.6.7 0 1.3-.4 1.3-.8s1-.9 2.2-.9c1.3-.1 2.4-.7 2.6-1.3.2-.5 1.2-1 2.2-1 1 0 2.2-.5 2.5-1 .3-.6 2.6-1.5 5.1-2.1 2.4-.6 4.4-1.7 4.4-2.3 0-.7 2.2-1.8 5-2.5 2.7-.7 5.2-1.7 5.6-2.2.3-.5 1.5-.9 2.7-.9 1.2 0 3.9-1.1 5.9-2.5 2-1.4 4.4-2.5 5.2-2.5.8 0 1.8-.5 2.1-1 .3-.6 1.4-1 2.5-1 1 0 3.8-1.1 6.1-2.5 2.4-1.4 5.1-2.5 5.9-2.5.8 0 2.8-.7 4.4-1.5 1.5-.8 3.2-1.3 3.6-1 .4.3 1.4-.2 2.1-1.1 1.8-2.2 5.8-4.1 9.9-4.8 1.9-.3 6-1.8 9-3.3 3-1.6 7.5-3.5 10-4.2 2.5-.8 5.1-2.1 5.8-3 .6-.8 1.2-1.1 1.2-.7 0 .4.6.4 1.3-.1.6-.4 1.8-.8 2.5-.9 2.8-.5 4.2-1.4 4.2-2.7 0-.9 1.2-1.4 3.2-1.5 1.7 0 3.4-.4 3.7-.9.3-.4 1.9-.9 3.6-1.1 1.6-.2 3.6-.8 4.3-1.4 1.7-1.5 11.1-5.8 12.5-5.8.7 0 3.5-1.1 6.2-2.5 2.8-1.3 5.6-2.5 6.3-2.5.7 0 3.2-1 5.5-2.2 2.3-1.2 5.3-2.3 6.6-2.5 1.3-.2 3.3-1 4.5-1.7 1.1-.8 3.7-1.7 5.7-2 1.9-.3 4.5-1.5 5.6-2.6 1.2-1 2.3-1.7 2.5-1.5.2.2 3.4-1.2 7.3-3 3.8-1.9 7.2-3.2 7.7-2.9.4.3 2.3-.6 4-1.9 1.8-1.4 3.9-2.2 4.6-2 .6.3 1.2 0 1.2-.5 0-.9 2.1-1.9 6-2.7.8-.2 1.6-.9 1.8-1.4.2-.6.8-1.1 1.3-1.1.6 0 .7.4.4 1-1 1.6 1.1 1.2 2.5-.5.7-.9 1.5-1.3 1.8-1.1.2.3 1.1-.2 1.9-1 .8-.8 1.9-1.2 2.4-.9.5.4 2.7.8 5 1.1zm175.8 60c-.6.7-2.6 1.8-4.5 2.4-1.9.6-3.4 1.5-3.4 2 0 .4-1.2 1.1-2.7 1.5-1.5.3-5.7 2-9.3 3.7-3.6 1.6-7.8 3.6-9.5 4.3-1.6.7-5.9 2.6-9.5 4.3-3.6 1.7-9.6 4.5-13.5 6.2-3.8 1.8-10.7 5-15.2 7.1-4.4 2.2-8.4 3.9-8.9 3.9-.4 0-1.5.6-2.3 1.3-.9.8-3.8 2.2-6.6 3.2-2.7.9-10.6 4.3-17.5 7.5-17.8 8.2-21.9 10-22.6 10-.7 0-4.7 1.8-19.9 9-12.8 6-17.2 8-17.8 8-.2 0-6.7 3-14.3 6.6-7.7 3.6-14.3 6.7-14.9 6.9-1.6.3-5.4 2-15 6.5-15.4 7.2-23.6 11-24 11-.4 0-6.1 2.6-21.3 9.7-11.9 5.6-14.7 6.4-16.8 4.8-3.3-2.4-.8-4.1 17.1-11.6 4.4-1.8 9.1-4 10.5-4.9 1.4-.9 4.4-2.2 6.8-3 2.3-.7 4.7-1.9 5.3-2.7.6-.7 1.7-1.3 2.4-1.3.6 0 3.4-1.2 6.1-2.6 2.7-1.4 4.9-2.5 4.9-2.4 0 .3 5.3-2 15-6.5 2.8-1.3 7-3.2 9.5-4.3 19.3-8.5 27.4-12.5 27.8-13.4.2-.5.7-.6 1.2-.3s2.5-.4 4.4-1.6c2-1.1 3.6-1.8 3.6-1.4 0 .3 1.2-.1 2.8-.9 2.4-1.3 8.5-4.2 21.2-9.8 6.9-3.1 15.1-6.8 19.5-8.8 2.2-1 5.1-2 6.5-2.3 1.4-.4 3.4-1.4 4.6-2.4 1.1-1 2.6-1.9 3.4-2.1.8-.2 1.7-.8 2-1.2.3-.5 2-1.2 3.8-1.5 1.8-.3 4.1-.9 5-1.4 9.3-4.8 23-11.1 24-11.1.6 0 4.2-1.5 7.9-3.4 13.2-6.5 19.8-9.6 20.9-9.6.6 0 2.7-1.1 4.6-2.3 1.9-1.3 5.2-2.7 7.3-3 2.1-.4 4.2-1.3 4.7-2 .4-.8 2.8-2 5.3-2.7 2.5-.7 4.8-1.6 5-2 .3-.5 2.1-.3 4 .3 2.7.8 3.2 1.3 2.4 2.3zm10.6 10.2c1.1.8 1.1.9 2 14.7 1.2 17.6 1.3 24.9.4 27.3-1.1 2.8-7.5 6-9 4.5-1.7-1.7-1.3-30.7.6-42.2.7-4.4 3.3-6.3 6-4.3zm-14.2 11.7c1.5 7.6 1.7 9 2.1 15.2.2 3.4.7 6.6 1 7.2 1 1.6 1.7 12.5.9 13.7-.9 1.3-6.7 4.4-8.2 4.4-.5 0-4.2 1.5-8.3 3.4-4 1.9-7.6 3.2-8 3-.4-.3-.5-4.1-.2-8.7.2-4.5.6-13.3.8-19.6.3-8.5.8-11.8 2-12.9 1.4-1.4 1.6-1.3 2.6 1.4 1.4 3.6 3.8 13.9 4.5 19 .7 5.6 1.4 8.6 2 9.2.5.5.7-1.2 1.1-10.8.5-15.5 1.5-25.2 2.6-27 2-3.1 4.2-2 5.1 2.5zm-26.9 17.7c1 4.2 2 11.4 2.3 16 1 14.9 1.2 14-3.2 16.5-2.2 1.2-4.5 2.3-5.2 2.3-1.4 0-3.3-6-2.4-7.5.6-1.2.9-5 1.4-19.7.2-5.9.6-11.1 1-11.4.4-.4.7-1.5.7-2.5 0-1.8 2-3.1 3.1-2 .4.3 1.4 4.1 2.3 8.3zm-15.3.7c.4 4.2.7 6.1 1.4 7.8.4 1 .9 4.9 1.2 8.8.2 3.8.8 9.3 1.2 12.2.4 2.8.4 5.8-.1 6.6-1 1.9-9.2 5.1-11.1 4.4-1.5-.5-1.6-7.1-.3-15.1.5-2.6 1-8.3 1.1-12.5.4-11.8.4-11.9 2-13.5 1.8-1.8 4.4-1.1 4.6 1.3zm-12.5 6.5c.3 1.3.6 9.7.7 18.7l.2 16.3-4 2.8c-2.2 1.5-4.7 2.7-5.7 2.8-.9 0-4.4 1.4-7.7 3.1-6.2 3.2-9.8 3.3-8.7.2.4-.9.9-3.2 1.2-5.2.3-2 .8-3.9 1-4.3.2-.4 0-1-.6-1.3-.7-.5-.8-1.1-.1-1.9.5-.6 1.2-3.2 1.5-5.6.7-7.2 2.6-17.7 3.6-20.5 1.2-3.1 3.5-3.3 4.5-.3.4 1.3.9 8.1 1.1 15.3.6 20.9 1.5 24.1 3.2 11.8.6-4.3 1.3-8.7 1.5-9.8.8-3.3 1.8-10 3.1-20.1.6-4.8 4.1-6.1 5.2-2zM78.2 153.1c2.9 1.1 8.9 3.6 13.3 5.6 19.6 8.6 24 10.4 25.8 10.7.8.1 2.1.7 2.9 1.3.7.7 2.7 1.7 4.3 2.3 4.5 1.7 22.8 9.8 32.5 14.3 4.7 2.2 9 4.2 9.5 4.3 1.4.4 22 9 27.5 11.6 2.5 1.1 6.8 3 9.5 4.3 13 6 15.2 6.8 18 7 3.6.2 7.6 5.9 10.1 14.4 2.4 8.4 1.6 25.7-1.5 33.3-1.4 3.1-3.1 6-3.9 6.3-1.7.6-6.8-3.8-7.7-6.5-.6-1.9-4-3.8-10-5.6-4.9-1.4-23-8.9-26.7-10.9-1.4-.8-3.5-1.5-4.6-1.5-1.2 0-2.3-.4-2.6-.9-.3-.4-2.7-1.6-5.3-2.6-2.6-1-7.2-2.8-10.1-4.1-2.9-1.3-5.8-2.4-6.5-2.4-.7 0-2.1-.6-3.2-1.4-1.1-.7-3.3-1.6-4.9-2-1.7-.4-4.2-1.6-5.7-2.7-1.5-1-3.5-1.9-4.4-1.9-.9 0-3.5-1.1-5.8-2.4-2.3-1.4-4.4-2.4-4.7-2.3-.4.2-4-1.3-19.7-7.9-1.8-.8-4.8-2-6.5-2.8-1.8-.8-5.1-2-7.3-2.7-2.2-.6-4.9-1.8-6-2.5-1.2-.8-3-1.5-4.2-1.7-1.2-.1-2.7-.8-3.5-1.3-.7-.6-3.9-2.1-7-3.4-5.7-2.2-6.8-3.3-4.8-4.5.6-.3 1-1.4 1-2.4s.9-2.6 2-3.6c1.2-1 1.8-2.5 1.6-3.2-.7-1.8 1.1-6.5 3-8 1.4-1 1.4-1.4-.4-3.3-1.6-1.7-1.8-2.8-1.1-5.8.4-2 1.3-3.8 1.8-4 1.6-.5 1.3-2.2-.3-2.2-1.3 0-2.3-1.4-2.4-3.4 0-.5-.6-1.2-1.2-1.6-1-.6-.8-1.4.6-3.4 2.3-3.1 2.1-3.1 8.6-.5zm338.5-.9c2 3.4 3.3 23.3 1.9 29.7-.3 1.4-.1 3 .4 3.6.7.8-.4 1.8-3.7 3.5-4.3 2.2-4.7 2.2-5.9.6-.7-1-1.1-2.5-1-3.4 1.9-10.6 2.4-14 3-20.2.9-8.2 1.7-13.3 2.2-14.1.8-1.3 2.2-1.1 3.1.3zm-12.3 3.5c1.6 5 2.8 31.1 1.7 35.6-.4 2.1-7.9 5.7-11.7 5.7-1.3 0-2.4.4-2.4.8 0 1.2-8.8 5.3-9.4 4.3-1.1-1.7-.8-6.9.9-16.6.9-5.5 1.9-12.8 2-16.3.4-7.3.9-8.2 4-8.2 2 0 2.4.6 3 4.9.3 2.6.6 8.2.5 12.2-.3 11.1-.1 14.9.8 14.9.5 0 .9-.6.9-1.3 0-.6.3-2.6.6-4.2.8-4.4 2.6-18.3 3.2-25.2.5-5.1 2-8.3 4-8.3.7 0 1.6.8 1.9 1.7zM378.5 167c.6 1 1.5 13.1 1.9 27.4.2 9.2-1.3 11.5-8.5 13-1.3.3-5.1 1.8-8.4 3.5-3.3 1.6-6.3 2.8-6.6 2.5-.4-.2-1.2.3-1.9 1.1s-1.9 1.5-2.8 1.5c-.8 0-3.5 1.1-5.8 2.5-2.4 1.4-4.5 2.4-4.7 2.3-.3-.4-6.8 2.3-15.2 6.2-12.1 5.7-17.1 7.8-19.5 8.5-1.3.4-5.7 2.3-9.7 4.1-4 1.9-7.6 3.4-8 3.4-.3 0-3.1 1.2-6.2 2.6-20.2 9.5-27.2 12.4-29.7 12.4-1.2 0-2.5.4-2.9.9-.3.5-2.6 2.1-5.1 3.5-5.3 2.9-6.3 2-4.4-4 1.7-5.2 1.4-12.8-1.1-24.3-1.2-5.9-1.2-6.4.5-7.6 1.4-1.1 2.2-1.1 3.6-.2 2.8 1.7 7 15.3 7.3 23 .2 7.9 1.2 7.9 2 0 .4-3.2.9-6.9 1.2-8.3.7-3.3 1.5-9.4 1.9-14.9.6-7.6 4.4-7.1 6.1.9 1.3 5.7 1.6 8.1 1.7 15.3.2 10.4 1.5 6.6 2.3-6.3 1-16.7 1.3-19.3 2.6-20.1 1.9-1.1 3.9.1 4 2.5.2 3.9.9 15 1.2 18.8.3 3.7 1.7 6.6 1.7 3.5 0-2.2 0-2.2 1-5.8.9-3 1.7-9.1 2.4-17.4.4-5 1.3-7.2 3.2-7.9 1.7-.7 3.7 3.4 3.9 7.9.2 6.2 1.7 15.5 2.6 16.1.5.3.9.2.9-.3.3-3.8 1.1-10.3 1.6-12.3.3-1.4.7-5 .8-8 .4-7.4 1.3-10 3.6-10 2.8 0 4.1 5.2 5.4 21.3 1 13.3 5.2 1.5 5.5-15.8.1-5.5.7-10.5 1.3-11.2 1.6-1.9 3.3-1.6 4.5.9 1.3 2.6 5.5 20 5.2 21.4-.3 1.8.1 3.4 1 3.4.5 0 .9-1 .9-2.3-.1-1.2.2-5.8.6-10.2.4-4.4.9-10.4 1.1-13.4.4-5.5 1.8-8.3 3.3-6.6 1.6 1.9 4.3 13 4.5 18.7.1 3.2.6 5.8 1 5.8.5 0 .6.4.2.9-.3.5-.1 1.2.4 1.6.6.3 1.2-.9 1.5-2.7.6-3.8 1.8-17.7 1.7-19.6-.3-6.8-.1-8.3 1.1-9.6 1.9-1.8 4.2-.5 4.4 2.6 0 1.3.7 4.3 1.4 6.8 1.4 4.4 1.7 7 1.9 13.7.1 3.1 1.7 4.8 1.8 2 0-.6.6-5 1.2-9.7.6-4.7 1.3-11.1 1.5-14.2.3-6 1.8-9 4.1-8.2.7.3 1.5 1.7 1.8 3.2 1.9 9.1 3.1 16.2 3.6 21.6.2 1.7 1.5-.4 1.8-2.7.1-1.2.4-4.2.7-6.7.3-2.5.8-7.5 1.1-11.2.3-3.7 1-7.9 1.5-9.3 1-2.6 3.8-3.4 4.5-1.3.4 1.3 1.3 12 1.9 23.6.3 7.2 1.1 8.7 2 4 .3-1.8.9-4.4 1.1-5.8.3-1.4.8-7.9 1.1-14.5.5-11.7 1-13.4 4.1-13.5.6 0 1.5.5 1.8 1zm92.4 13.1c4.4 2.2 8.1 4.4 8.1 5 0 .5.6.9 1.3.9.6 0 3.2 1.4 5.7 3.1 2.5 1.6 7.4 4.8 11 6.9 9.2 5.6 9.1 5.5 8.5 7.2-.7 1.8-7.3 3.6-15 4.2-4.3.3-19 2.8-25 4.3-1.1.3-4 .6-6.5.9-2.5.2-8.1 1.1-12.5 1.9-4.4.9-10.2 1.9-13 2.1-2.7.3-9.5 1.4-15 2.4s-11.6 1.8-13.7 1.8c-2 0-6 .7-9 1.5-2.9.8-7.8 1.8-10.8 2.2-7 .8-22 3.4-24.2 4.1-2.9.9-6.1 1.4-12.2 1.9-3.2.3-6.3.8-6.9 1.2-.5.3-.8 0-.5-.8.4-1.3 10.3-6.9 12.3-6.9.5 0 4.5-1.8 8.8-4 4.3-2.2 8.2-4 8.7-4s4.2-1.6 8.3-3.5c4.1-1.9 7.8-3.5 8.4-3.5.6 0 1.6-.7 2.3-1.5.7-.8 1.6-1.3 2-1 .4.3 3.4-.8 6.6-2.4 9.6-4.7 17.6-8.1 18.8-8.1.7 0 1.7-.5 2.4-1.2.6-.6 1.7-1.3 2.4-1.4 2.1-.3 24.2-10.6 25.8-11.9.8-.7 3.4-1.8 5.7-2.4 2.3-.7 4.5-1.6 4.8-2.1 1.1-1.8 4.2-1 12.4 3.1zm-364.4 47.4c2.2.9 5 2.1 6.2 2.6 1.2.4 3 2.1 4 3.6.9 1.5 3.3 4.8 5.3 7.3s4.8 6.3 6.3 8.5c1.4 2.2 4.7 6.2 7.2 8.9 6.1 6.5 8.1 10.8 8.9 18.6 1.6 15.2.4 36.5-2.2 39.3-1.5 1.7-1.7 1.6-4.4-1.5-1.5-1.8-3.1-4.2-3.4-5.3-.4-1.1-1-2.2-1.3-2.5-1-.7-6.8-9.6-8.6-13-.8-1.5-2-3.4-2.7-4.2-2-2-6.8-9.6-6.8-10.7 0-.5-.4-1.1-.8-1.3-.9-.3-6-7.9-8.1-12-.7-1.5-2.8-4.2-4.5-6.1-1.7-1.8-4.2-5.4-5.5-8-1.2-2.5-2.9-4.8-3.7-5.1-1.6-.6-1.9-5.2-.4-6.1.6-.4.8-1.1.5-1.6-.4-.5-.2-.9.4-.9 1 0 3.3-6.1 3.6-9.3.3-3.9 3.2-4.2 10-1.2zm409 3.6c.9 1.7 1.4 3.3 1.1 3.7-.3.3-.1 1 .4 1.7 1.5 1.8 2.3 8.2 2.4 18.7.1 11.1-.7 12.6-7 13.4-2.1.2-4.6.7-5.4.9-3.6 1.1-3.8-.9-.8-10 2.5-7.3 3.1-10.9 3.3-19.5.2-5.8.4-10.8.4-11.3.3-2 4.2-.4 5.6 2.4zm-16.7-.3c1.9 1.2 2.3 5 2.6 21.9.2 17.4.1 17.8-7.9 18.7-2.6.3-5 .8-5.4 1-.4.3-1.3.1-2-.3-1.1-.7-1.1-1.3 0-3.2.7-1.3 1.4-2.9 1.6-3.4.1-.6 1-3.5 1.9-6.5 1.7-6.1 3.6-17.9 3.4-22.4 0-1.6.7-3.7 1.6-4.7 1.9-2.1 2.3-2.2 4.2-1.1zm-16.7 1.8c1.5 1.9 2.2 25.6.9 33.9-.9 6-2.8 7.5-9.6 7.5-2.8 0-6.9.6-9 1.3-3.4 1.2-6.6 1.7-19.6 3.2-3 .3-3.4-.7-1.9-4.8 1.5-3.9 2.5-12.1 3.4-28.1.4-6 .9-8.1 2.2-8.8 2.2-1.3 2.9-.4 3.1 4 .2 2 .5 4.8.8 6.2.4 1.4.8 7.2 1.1 12.9.3 5.7.7 10.7 1 10.9 1 1.1 2.4-1.4 3-5.3.4-2.2.9-4.9 1.2-6 1-3.4 1.3-6.7 1.3-14.4 0-4.1.5-8 1.1-8.8 1.7-2 4.7-1.6 5.4.7 1.9 6.1 3.1 24.2 2.1 32.2-.5 4.5.7 3.2 3.1-3 3.6-9.5 4.6-14.3 4.8-23.4.2-10.5 2.2-14.2 5.6-10.2zM136.4 240c2.5 1 4.6 1.7 4.6 1.5 0-.2 1.6.7 3.6 2 2 1.4 4.5 2.5 5.6 2.5 1.6 0 6.3 2.4 7.8 4 .3.3 1.8.7 3.3.8 1.6.2 5 1.5 7.7 2.8 2.6 1.3 5.4 2.4 6.1 2.4 2.6 0-2 3.4-4.8 3.6-1.6.1-4.6.4-6.8.7-4.3.6-12.6 1-16.2.8-2.7-.1-9-5.9-12.9-12-6.2-9.4-6.1-9.1-4.4-10.1 1.9-1.2 1.1-1.3 6.4 1zm301.5 1.2c2 3.1 2.2 4.7 2.4 17.3.1 11.7-.7 18.2-2.6 20.2-.7.7-3 1.5-5.2 1.9-2.2.3-5.1.8-6.5 1-1.4.2-5.3.7-8.7 1-6.8.6-7.7-.2-5.3-4.7.6-1 1.3-3.8 1.6-6.1.4-2.4 1-5.1 1.6-6.1.5-.9 1.1-6.3 1.4-12 .3-5.6.7-10.8.9-11.5.5-1.4 4.1-1.6 5-.2 1 1.5 2.8 25.7 2.6 33.5-.1 3.4.1 3.7 1.4 2.5 1.6-1.7 4.5-12.1 5-18.3.2-2.3.4-4.3.5-4.5.6-.6.5-7-.1-9.4-.5-1.7-.2-3.4.8-4.7 1.8-2.7 3.5-2.7 5.2.1zm-30.8 7.2c0 1.7.3 4 .5 5.1.2 1.1.7 7.7 1.1 14.6.5 12 .5 12.7-1.6 14.8-1.1 1.1-3.1 2.1-4.3 2.2-1.3 0-3.3.2-4.5.5-2 .3-2.2 0-1.9-2.4.2-1.5 1.1-4.9 2.1-7.6 1.2-3.4 1.7-8.6 1.8-18 .2-11.9.4-13.2 2.2-14.3 2.5-1.5 4.5.6 4.6 5.1zm-15-1.1c0 .7.2 2.1.5 3.2.2 1.1.6 9.1.7 17.8.3 12.7.1 16.1-1 17.3-.8.8-1.7 1.4-2.1 1.4-.4.1-3.3.3-6.4.6-5.8.6-6.9-.1-4.5-2.4.6-.7 1.2-1.6 1.2-2 .1-.4.6-1.6 1.2-2.7 2.1-4 3.7-13.2 3.8-23.2.1-11.1 1.2-14 4.6-12.2 1 .5 1.9 1.5 2 2.2zm-16.4 2.4c.6 2.5.9 23.5.4 34-.3 5-2 6.3-8.4 6.6-4.9.2-5-.5-1-9.4 2.9-6.7 3.2-8.4 3.3-21.4.1-5.4.6-10.5 1.2-11.2 1.7-2.1 3.7-1.5 4.5 1.4zm-27.8 8.6c-.1 1.2.3 5 .8 8.4.5 3.5.7 6.5.4 6.8-.2.3-.6 3.3-.7 6.6-.4 9.5-1.8 12.4-6.7 14.3-4.9 1.8-7.7 2.1-7.7.6 0-.6 1.1-3.7 2.5-6.9 1.3-3.2 2.6-6.9 2.8-8.2 1.6-8.7 1.9-12.1 2.2-19.2.1-6.4.6-8.3 2-9.4 1.7-1.2 2-1 3.2 1.8.7 1.7 1.2 4 1.2 5.2zm13.7-7.1c1.2 2 1.1 36.8-.1 38.4-1.3 1.8-9.5 3.8-10.6 2.7-.5-.5.2-4 1.6-7.8 2.4-7 3.5-14.6 3.9-26 .1-3.4.6-6.6 1-7.3.9-1.5 3.3-1.5 4.2 0zm-31.5 9.6c.7 3.1 1.4 7.7 1.5 10.2.1 2.5.5 8.7.8 13.8l.5 9.4-3.2 1.3c-1.8.7-4.9 1.6-6.9 2-3.2.6-3.8.4-3.8-1 0-.9.4-2.5 1-3.5.5-1 1.2-3.4 1.4-5.3.3-1.9 1.1-5 1.8-6.8.8-1.9 1.3-4.5 1.1-5.9-.1-1.4-.4-6-.7-10.3-.3-6.9-.2-7.9 1.7-9.2 2.8-2 3.4-1.3 4.8 5.3zm-16-3.8c0 .3.2 1.4.4 2.5.3 1.1.6 3.7.9 5.7.2 2 .7 4.1 1 4.6 1.2 1.9.9 26.1-.3 27.6-1.4 1.7-9.3 3.2-11 2.1-.6-.3-.8-1.2-.4-1.8 2-3.1 4-21.1 4.2-38.2.1-2.5.5-3 2.6-3 1.4 0 2.5.2 2.6.5zm-15.2 2.4c.6.7 1.4 3.3 1.6 5.7.3 2.4.8 6 1.1 7.9.4 1.9.8 6.6 1 10.5.2 3.8.6 8.7.7 10.8.4 4.1-1.8 6.7-5.5 6.7-2.1 0-5.3-4.4-4.3-6 .7-1.1.8-27.2.1-30.6-.4-2.2 1.8-6.4 3.3-6.4.5 0 1.4.6 2 1.4zm-12.7 7.6c.4 1.9.9 9.1 1.1 15.9.3 11 .2 12.5-1.5 14.1-1.4 1.2-2.8 1.5-5.6 1.1-3.5-.6-3.7-.9-3.6-4.1 0-3.9 1.3-12.1 2-13.2.3-.4.5-4 .5-8 0-7.8 1-10.1 4.3-9.6 1.4.2 2.3 1.4 2.8 3.8zm-15.7 3.1c.1 1.9.5 6.3.9 9.9 1.4 12 1.3 14.1-.7 15.2-1 .5-2.9.7-4.1.4-2.2-.5-2.3-.8-2.1-13.1.2-13.4 1.5-18.2 4.3-16.6.8.5 1.6 2.4 1.7 4.2zm-12.4.6c0 .5.2 1.7.5 2.8 1 5.3 1.1 16.5 0 17.3-2 1.6-5.5 2-7.1.8-1.3-1-1.4-2.1-.5-9 1.5-10.1 2.4-12.6 5-12.6 1.1 0 2 .3 2.1.7zm-14.6 9.7c.1 5.9-1.2 8.3-3.9 7.3-.9-.4-1.5-2.5-1.7-5.7-.3-4.3-.1-5.5 1.6-6.6 3.1-2.2 4-1.1 4 5zm-41.6-4.5c1 .7 1.4 4 1.5 13.7l.1 12.9-3 2.8c-2.9 2.6-6.2 3.2-5.8 1.1.8-4.1 1.7-17.1 1.6-22.9-.2-8 1.5-10.2 5.6-7.6zm13.6 9.2c0 8.3-.2 9.2-2.4 11-2.8 2.3-5.6 2.5-4.8.4.4-.8.2-1.7-.4-2-.5-.4-.6-1.1-.3-1.7.3-.5.8-4.2 1-8.1.4-7.5 1.8-9.9 5.2-9 1.4.3 1.7 1.8 1.7 9.4zm-55.1-6.3c1.8 5.9 2.9 27.7 1.8 35.2-.6 3.9-1.2 4.7-4.4 6.3-2.9 1.4-4.2 1.6-5.8.7-1.1-.6-1.8-1.5-1.6-1.9.3-.5.8-3.7 1.2-7.2.3-3.5.7-8 .9-9.9.2-1.9.6-6 .9-9 1.2-12.2 1.7-15.5 2.8-16.1 1.6-1 3.6 0 4.2 1.9zm13.1-.8c.3 1.1.8 3 1 4.2.2 1.3.9 5.7 1.6 9.8.8 4.1 1.3 8.2 1.2 9-.1.8-.3 4.8-.4 8.8-.2 8.1-.5 8.5-7.6 9.6-4.4.6-4.6.5-4.5-4.4 0-2 1.4-12.4 2.2-16.5.5-2.8.9-6.1.8-7.5-.5-10 3.6-19.5 5.7-13zm16-1c1.2 2 1.7 6.6 1.8 18.8.2 6.8-.1 12.6-.5 12.8-.5.3-.8 1.3-.8 2.3 0 1.7-3.9 5.1-7.2 6.4-2.4.9-2.3-1.9.3-11.9 1.4-5 2.2-11.4 2.3-17.4.1-5.3.5-10.1 1-10.8.9-1.5 2.3-1.6 3.1-.2zm38.2.2c1.5 2.1.6 7.2-1.8 9-2.9 2.4-3.5 1.7-3.6-3.7-.1-3.2.4-4.8 1.6-5.5 2.1-1.3 2.7-1.2 3.8.2zm11.8 24.7c2.8.6 6.6 1.4 8.6 1.6 2 .3 4.9.9 6.4 1.5s3 .8 3.2.6c.3-.3 1.7 0 3.1.5 2.6 1 4 1.3 13.2 2.4 3 .3 6.1.8 6.8 1.1.7.2 4.1.7 7.5 1 3.4.3 7.1 1 8.4 1.5 1.3.5 2.5.4 2.8-.2.4-.5 1.1-.6 1.7-.3.5.4 2.9.8 5.1 1 7.7.6 14 1.4 14.6 1.8.5.3 4.9.7 25.1 2.1 11.5.8 23.4 3.3 31 6.5 10.4 4.4 24.2 14.9 25.3 19.1.4 1.5-.2 2.9-2.2 4.8-7.1 6.6-10.9 9.9-14.6 12.6-4.7 3.5-22.7 17.8-24.6 19.7-.8.7-5 4.5-9.4 8.3-4.4 3.9-8.6 7.6-9.3 8.3-.8.6-2.3 1.7-3.5 2.4-1.2.6-5.2 3.5-8.8 6.5-3.6 2.9-7.1 5.3-7.8 5.3-.6 0-1.1.4-1.1.8 0 .5-3.3 3.1-7.2 6-4 2.8-8.7 6.3-10.3 7.9-1.7 1.5-3.8 3.2-4.7 3.8-.9.5-6.1 4.4-11.6 8.5s-11 8.2-12.2 9c-2.9 1.9-7.8 5.8-11 8.8-2.3 2.1-18.1 14.2-31 23.7-3 2.2-5.6 4.3-5.8 4.7-.2.5-.8.8-1.4.8-.6 0-2.7 1.4-4.8 3-2.1 1.7-4.1 3-4.4 3-.4 0-1.9 1.1-3.4 2.5-2.5 2.4-6.2 3.4-6.2 1.7 0-1.3-7.4-8.7-10-10-1.4-.6-3.2-1.6-4-2.2-.8-.5-4.9-2.3-9-4-4.1-1.8-8.8-3.7-10.5-4.5-1.6-.7-4.6-1.6-6.5-2-1.9-.4-4.4-1.3-5.5-2-1.1-.7-3.6-1.6-5.5-2-3.4-.6-6.4-1.5-10.5-3.1-1.1-.4-2.7-.9-3.5-1-6.4-1.3-11.3-2.5-12.3-3.1-.6-.4-3.2-1-5.7-1.5-3.7-.7-5.8-1.1-7.7-1.7-.2-.1-.6-.1-1-.2-.5-.1-1.5-.5-2.4-1-.9-.5-3.6-1.1-6-1.4-2.4-.3-6.5-1.2-9-2-2.5-.9-5.9-1.7-7.5-2-4.1-.6-6.3-1.1-12.1-2.8-2.8-.9-5.4-1.3-5.6-1-.3.2-1.4 0-2.4-.5s-4.1-1.2-7-1.5c-2.8-.3-5.9-1-7-1.5-1-.6-3.6-1.3-5.8-1.6-2.1-.4-4.2-1.2-4.6-1.8-.6-.9 1.8-3.7 5.6-6.5.6-.5 3.4-2.7 6.2-5.1 2.8-2.3 5.5-4.2 5.8-4.2.4 0 3-2 5.8-4.5 2.8-2.4 5.4-4.2 5.9-3.9.4.3.8.1.8-.4s1.9-2.2 4.2-3.7c2.3-1.5 5.4-3.9 6.7-5.2 1.4-1.2 2.9-2.3 3.4-2.3.8 0 7.5-5 10.5-7.7.7-.7 2.6-2 4.2-3 1.7-.9 3-2.3 3-3 0-.7.4-1.3.9-1.3s2.2-1.2 3.8-2.8c1.5-1.5 5.3-4.6 8.5-7 3.1-2.4 6.8-5.4 8.3-6.8 1.4-1.3 4.4-3.3 6.5-4.4 2.1-1.1 6-3.8 8.7-6.1 8.1-6.9 8.7-7.4 12.4-9.7 2-1.2 4.7-3.2 6-4.5 1.3-1.3 6-5 10.4-8.3 4.4-3.2 8.7-6.7 9.6-7.6.9-1 2.1-1.8 2.7-1.8.6 0 1.2-.4 1.4-.9.2-.4 3.5-2.9 7.3-5.4 7.5-5 8.5-5.7 21.5-15.8 11.5-8.9 13.9-10.1 16.5-8.5 1.1.7 4.3 1.8 7 2.5zM450 347.4c12.2 1.7 40.2 9.8 43.5 12.6.6.5 1.4.7 1.7.4.3-.2 2.3.3 4.4 1.2 2.2.9 4.8 2 5.9 2.4 1.1.4 4.1 1.7 6.6 2.9 2.5 1.1 4.9 2.1 5.2 2.1.4 0 3.1 1.1 6.1 2.5 3 1.4 5.7 2.5 6 2.5.3 0 2.8 1.3 5.4 3 2.7 1.6 5.6 3 6.4 3 .9 0 5.9 2.2 11.2 4.9 5.3 2.7 9.6 4.8 9.6 4.5 0-.2 1 .2 2.3 1.1 3.1 2 15.8 6.5 16.8 5.9.4-.2 1 0 1.4.6.3.5 2.3 1.4 4.3 2 2 .5 5.1 2.1 6.7 3.4 3.5 2.9 2.9 4.8-2.4 7.7-1.8.9-4.9 3.1-6.9 4.8-2.1 1.7-4.1 3.1-4.6 3.1-.4 0-2.3 1.2-4.1 2.7-1.8 1.6-4.7 3.9-6.5 5.3-1.8 1.4-3.8 3.1-4.5 3.7-.8.7-1.8 1.3-2.4 1.3-.6 0-1.1.4-1.1.9 0 .8-7.5 6.8-11.9 9.6-2.5 1.6-15.4 11.7-17.2 13.4-2.6 2.6-10.2 9-13.5 11.4-1.7 1.2-5.7 4.2-8.9 6.7s-7.9 6.1-10.5 8c-2.6 1.9-7.4 5.5-10.6 8-3.3 2.4-7.8 5.8-10 7.5-4 2.9-15.6 11.8-23.3 18-9 7.1-35.2 26.3-39.7 29-1.8 1.1-5 3.2-7.1 4.6-9.3 6.3-15 9.6-17.5 10.2-2 .5-5.2-.5-13-4.2-12.4-5.8-17.7-8.1-18.6-7.9-.4.1-2.3-.5-4.2-1.4-15.2-6.8-58.8-22.3-59.8-21.3-.3.2-1.9-.3-3.6-1.3-1.7-.9-3.9-1.8-4.8-1.9-3.8-.6-5.4-1-6.8-1.5-1.3-.6-6.6-1.9-8-2-.3 0-4.1-1-8.5-2.2-4.4-1.2-8.9-2.1-10-2.1-1.1.1-2.2-.2-2.5-.6-.3-.4-2.5-1-5-1.3-5.7-.8-9.3-1.4-15-2.8-2.5-.5-5.8-1.2-7.5-1.4-10-1.4-10.3-1.6-8.7-4 .6-1 6.2-5.5 15.7-12.8 3.3-2.6 20-14.9 23.1-17.1 3.6-2.6 14.3-11 16.9-13.3 1.1-1 3.8-3.1 6-4.8 2.2-1.6 4.5-3.4 5.1-3.9 3.2-2.9 9-7.4 19.4-15 6.3-4.7 12.2-9 13.1-9.7 1-.7 5-3.9 9-7 12.8-9.9 20.2-15.3 26.9-19.9 3.5-2.4 9.1-6.9 12.5-9.9 3.3-3.1 7.7-6.8 9.8-8.4 2.1-1.5 4.5-3.5 5.5-4.5.9-1 6.2-4.9 11.7-8.8 5.5-3.9 11-7.9 12.2-8.9 1.2-1.1 3.6-3 5.4-4.4 1.7-1.4 4.1-3.4 5.2-4.4 1.2-1.2 4.1-2.1 7.6-2.5 6.1-.7 24.4-.5 30.1.3zm154.5 62.5c1.2.1 4.7 5.6 4.3 6.8-.4 1.6 1.5 5.8 3.7 8.3 3 3.4 6.1 9.2 5.9 11-.1.8-.2 2.1-.3 2.7 0 .7-1.5 2-3.2 2.8-1.6.9-3.8 2.4-4.7 3.3-1 .9-4.2 3.7-7.2 6.2-3 2.4-6.2 5-7 5.7-.8.7-4.6 3.9-8.5 6.9-3.8 3.1-7.4 6.2-8 6.9-.5.7-4.1 3.5-8 6.4-3.8 2.8-7.7 5.8-8.6 6.6-.9.8-2 1.5-2.6 1.5-.6 0-1.3.7-1.7 1.5-.3.8-1.1 1.5-1.8 1.5s-3.2 1.8-5.5 3.9c-2.3 2.1-4.6 4-5.1 4.2-1.1.4-16.1 12.5-24.1 19.4-2.6 2.2-5.9 4.9-7.5 6-1.5 1.1-3.8 2.9-5.1 4-7.4 6.5-11.9 10.1-13.3 10.9-.9.5-2.4 1.8-3.3 2.8-.9 1-2.1 1.8-2.8 1.8-.6 0-1.1.5-1.1 1 0 .6-2.6 2.7-5.7 4.7-3.2 2-6 4.1-6.2 4.6-.2.5-3 2.6-6.3 4.7-5.8 3.8-11.2 8.1-20.8 16.7-2.6 2.4-5.2 4.3-5.9 4.3-.6 0-1.1.4-1.1 1 0 .5-1.1 1.5-2.4 2.2-1.3.7-4.6 3.3-7.3 5.8-5 4.5-11.8 9.7-17.6 13.4l-3 2-2.1-2.6c-1.2-1.4-2.9-3.5-3.8-4.7-1-1.2-1.8-2.7-1.8-3.4 0-.6 3-4.1 6.7-7.7 3.6-3.6 8.6-8.4 11-10.8 2.3-2.3 4.3-3.9 4.3-3.6 0 .4 1.9-1.1 4.3-3.2 2.3-2.2 8-6.8 12.7-10.3 4.7-3.6 8.7-6.6 8.9-6.8.2-.2.1-.6-.2-1-.4-.3-2 .5-3.5 1.8-2.3 2.2-7.1 5.6-13.1 9.4-.8.5-2 1.4-2.7 2-.6.5-2.2 1.7-3.4 2.5-1.3.8-3.2 2.4-4.4 3.6-1.1 1.1-4.8 4-8.1 6.5-3.3 2.4-7.2 5.5-8.7 6.7-1.4 1.3-3 2.3-3.4 2.2-.4-.1-1.1.5-1.6 1.4-1.5 2.6-4.8 2-4.8-.8 0-1.8 1.8-4 6.3-7.8 8.6-7.4 9.4-8 16.7-13.7 3.6-2.8 7-5.5 7.6-5.9.6-.5 3.9-3.1 7.5-5.8 3.5-2.7 6.9-5.3 7.5-5.9 2.4-2.2 7.1-6.1 8.6-7 4.3-2.8 7.5-5.2 9.4-7 1.1-1.1 4.2-3.6 6.8-5.5 2.7-1.9 6.3-4.9 8.1-6.5 4.5-4.1 10.7-9 11.4-9 .3 0 2.2-1.5 4.1-3.3 1.9-1.7 3.8-3.2 4.2-3.2 1.2 0 5.8-5 5.8-6.3 0-.7-1.1 0-2.4 1.5-1.3 1.6-2.8 2.8-3.3 2.8s-1.8.9-2.8 2c-1 1.1-2.4 2-3.1 2-.7 0-1.4.4-1.6.8-.3.7-13.6 11.5-23.8 19.2-2.5 1.9-4.7 3.7-5 4-.3.3-2.3 1.7-4.5 3-2.1 1.3-4.7 3.1-5.6 4-.9.8-6 4.6-11.4 8.5-5.3 3.8-10.6 7.8-11.6 8.7-1 1-2.4 1.8-3 1.8-.5 0-.7.5-.4 1 .3.6-.2 1-1.3 1-1 0-2.9 1.1-4.2 2.5-1.3 1.4-2.9 2.5-3.6 2.5-.7 0-1.4.3-1.6.8-.4.9-6.4 5.6-13.5 10.5-4.9 3.5-5.2 3.5-5.8 1.6-.5-1.6.4-3.1 4.3-6.7 2.7-2.6 6.8-6.1 9.1-7.7 6.2-4.5 8.4-6.2 11.1-8.5 1.4-1.2 5.4-4.2 9-6.8 3.6-2.6 6.7-5 7-5.3.3-.4 3-2.4 6-4.5s6.1-4.4 6.9-5.1c.7-.8 5.5-4.5 10.5-8.2 5-3.8 10.2-7.9 11.6-9.2 1.4-1.4 4.5-3.8 6.8-5.4 2.4-1.6 6.3-4.6 8.5-6.7 2.3-2.1 4.5-3.8 4.8-3.8.3 0 3-1.9 6.1-4.3 3-2.3 6.7-5.1 8.2-6.2 1.6-1.1 7.8-5.8 13.8-10.5 6.1-4.7 12.3-9.5 14-10.6 1.6-1.2 4.8-3.9 7.1-6 2.3-2.2 7.7-6.5 11.9-9.7 4.2-3.2 7.8-6.1 8-6.5.4-.9 6.5-5.2 7.4-5.2.6 0 9-6.4 10.4-8 .3-.3 2.3-1.8 4.5-3.4 2.2-1.7 5.4-4.2 7-5.7 8.9-8.2 12.1-10.6 13.5-10.4.8.2 2 .4 2.5.4zM46 447.1c4.7 1.7 11.4 3.7 15 4.5 10.4 2.3 26.3 5.6 28.5 5.8 1.2.1 2.7.6 3.4 1 .7.4 1.5.6 1.8.3.3-.3 2.2.1 4.2.9 2.1.8 5.7 1.6 8.2 1.8 2.4.1 6.2 1 8.3 2 2.2.9 5.8 1.8 8 2 2.3.2 5.5.9 7.1 1.6 1.7.6 5.7 1.8 9 2.5 3.3.8 8 1.9 10.5 2.5 2.5.7 5.2 1.3 6 1.5 5.2 1.1 19.5 6.2 24.9 8.8 6.8 3.4 8.1 4.1 11.2 6.9 1 1 2.3 1.8 2.7 1.8 1.1 0 7.2 8.1 7.2 9.5 0 .7-.9 2-1.9 2.9-1.8 1.7-2.1 1.6-6.3-1.1-8.4-5.4-12.1-7.4-24.3-12.8-7-3.1-34.6-12.6-37.8-12.9-1.2-.2-3.2-.6-4.4-1-1.2-.4-2.4-.3-2.7.2-.3.5 2 1.5 5.2 2.2 3.1.7 6.5 1.8 7.6 2.3 1 .5 2.8 1 4 1.2 5.7.7 9.6 1.8 10.7 3.1.6.8 2.1 1.4 3.4 1.4 1.2 0 2.5.3 2.9.7.4.5 1.1.8 1.4.8 1.8.2 6 2 10.4 4.6 2.7 1.6 5.7 2.9 6.8 2.9 1 0 3.1 1 4.7 2.3 1.5 1.3 4.1 3.1 5.6 4.1 2.3 1.4 2.6 2 1.6 3.2-3.3 4-6.3 3.7-16.6-1.5-5-2.5-7.3-2.5-5.8-.1.4.7 1.6 1 2.6.7 1.1-.3 1.9-.2 1.9.2s2.3 1.5 5 2.5c2.8 1 5 2 5 2.3 0 1.3-2.6 5.1-5.2 7.6-2.3 2.1-3.3 2.5-4.8 1.7-2.5-1.4-7.2-3.2-8.8-3.6-.8-.1-2.1-.6-3-1-.9-.4-1.9-.8-2.2-.8-.3-.1-5.2-1.7-11-3.5-17.2-5.4-22.4-7-24.5-7.4-1.1-.2-3.6-1.1-5.6-1.9-2-.9-5.1-1.9-7-2.4-1.9-.4-3.6-.8-3.9-.9-.3-.1-1.8-.5-3.5-.9-1.6-.4-3.9-1.2-5-1.7s-3.1-1-4.5-1.3c-1.4-.2-4.2-1.1-6.1-1.9-2-.8-5.5-1.8-7.9-2.2-2.4-.4-5.8-1.3-7.6-2.1-1.8-.7-4.8-1.6-6.7-1.8-1.9-.2-4.8-1.1-6.6-2-1.7-.9-3.3-1.6-3.6-1.5-1.2.2-9.3-1.4-12.5-2.6-9.8-3.4-12.3-4.1-16.7-4.4-.7-.1-1.7-.9-2.2-2-.9-1.6-.4-2.3 3.4-4.7 2.5-1.5 4.6-3.2 4.6-3.6.2-1.2.6-2.8.8-3.1.4-.4 1.1-6.1 1.4-10.5.3-4 1.7-6.2 4.2-6.2.6 0 4.8 1.4 9.5 3.1zM206.5 508c.3.5 1.4 1 2.4 1 1.6 0 11.9 10 15.3 14.9 1.5 2.1 1.7 2.2 2.6.4.9-1.5 2.3-1.8 9.4-1.8 4.6 0 9.2.4 10.3.9 2.6 1.1 5.5 1.5 5 .6-.3-.4-1.9-1.1-3.7-1.5-3.4-.8-3.7-.8-17.2-2-7.2-.6-8.5-1-8.9-2.6-.4-1.3.3-2.5 1.9-3.6 2.8-1.8 4.8-1.7 31.9 2.2 10.6 1.5 15 2.6 31.5 7.6 4.1 1.2 8.2 2.3 9 2.4.9 0 2.7.9 4 1.8 1.4.9 3.1 1.7 3.9 1.7.7 0 3.2.8 5.5 1.9 2.3 1 6.7 3 9.8 4.5 3.1 1.4 6 2.6 6.5 2.6.8 0 6.8 2.8 17.6 8.1 3.1 1.6 5.8 2.8 6 2.8.3-.1 5.3 2 9.7 4 1.9.9 6.7 3.5 10.6 5.8 3.9 2.4 7.7 4.3 8.3 4.3.6 0 1.1.4 1.1 1 0 .5.4 1 1 1 .5 0 3 1.5 5.6 3.2 3.9 2.9 5.4 4.9 10.5 15.4 3.2 6.7 6.5 12.4 7.4 12.8 1.9.7 2 5 .1 6.5-1 .9-2 .9-3.3.3-1-.6-2.1-.9-2.5-.9-.4.1-1.5-.5-2.5-1.3s-2.5-1.6-3.3-1.7c-2.9-.4-10.5-2.8-12-3.8-.8-.5-2-1-2.7-1.1-.7-.1-2.7-1-4.5-1.9-1.8-.9-5.4-2.3-8-3.1-2.6-.8-7.7-2.8-11.4-4.4-3.6-1.7-7.2-3-8-3-.8 0-1.4-.4-1.4-1 0-.5-1.8-1.3-3.9-1.6-2.2-.4-4.9-1.5-6-2.6-1.2-1-2.7-1.8-3.4-1.7-.6.2-3-.5-5.2-1.5-4.8-2.2-12.3-5.2-18.5-7.3-2.5-.9-4.7-1.9-5-2.3-.7-.9-17.3-7-19.1-7-.8 0-2.6-.8-3.9-1.7-1.4-1-2.7-1.7-3-1.7-.6.2-.7.1-10.5-3.1-4.4-1.5-9.3-3.3-11-4-1.6-.7-5.2-2.1-8-3-2.7-1-5.5-2.2-6-2.6-.6-.4-2-.6-3-.5-2.1.4-7.5-4.6-7.5-6.9 0-.7-.8-2.3-1.8-3.5l-1.8-2.3.2 3.4c.3 4.5-4.7 9.3-11.3 10.7-2.6.6-5.1.8-5.5.6-.4-.3-2.2-.7-4-.8-1.8-.2-4.5-.9-6-1.5-1.6-.6-2.8-.9-2.8-.6 0 .2-1.6-.7-3.6-2-2-1.4-3.9-2.3-4.3-2.1-1 .6-8.2-4.6-10.3-7.4-3.1-4.3-3.1-7.3.2-11.8 4.6-6.4 11.6-9.9 20-10.1 3.8-.1 7.1.3 7.5.9z"/><path d="M75.6 163.9c.5.5 2 1.2 3.4 1.6 2.4.7 2.4.7.5-.9-2.1-1.6-5.6-2.3-3.9-.7zM84 167.5c3.1 1.7 7.2 3.6 8.5 3.9.6.1 2.6.9 4.5 1.8 7.2 3.2 9 3.7 9 2.8 0-.8-4.1-3.6-4.8-3.1-.1.1-1.5-.5-3-1.2-1.5-.8-4.5-2-6.7-2.7-2.2-.7-4.4-1.6-4.9-2.1-.6-.5-1.9-.9-3-.9-1.9 0-1.9.2.4 1.5zM107 176.5c0 1.1 6.1 4 8 3.8.3-.1 2.4 1 4.7 2.3 2.2 1.4 5 2.7 6.2 2.9 1.1.2 5.9 2.2 10.7 4.5 4.7 2.2 8.9 3.9 9.1 3.6 1.3-1.2-.9-3.6-3.2-3.6-1.4 0-2.5-.5-2.5-1 0-.6-.3-.9-.7-.8-1.1.2-3.7-.9-10.8-4.3-3.3-1.6-6.9-3-8-3.2-1.1-.2-2.9-.8-4-1.4-1.1-.6-3.7-1.8-5.7-2.6-3.1-1.3-3.8-1.4-3.8-.2zM88.6 181.9c-.5.7.7 1.4 4.4 2.5 1.8.5 7.8 2.9 9.3 3.8 1.1.5 2.1.7 2.4.5.4-.5-13.8-7.7-15.1-7.7-.2 0-.7.4-1 .9zM109 190.7c0 .7 2.4 1.8 15 7 1.9.8 4.7 2.1 6.2 2.9 1.4.7 3.4 1.4 4.3 1.4 1 0 3.4 1 5.4 2.2 3.9 2.5 7.1 3.3 7.1 1.9 0-1.3-1.1-1.9-4.2-2.5-1.5-.2-3.9-1.3-5.4-2.3-1.6-1-2.8-1.6-2.9-1.3 0 .3-2.1-.3-4.5-1.4-4.9-2-8.2-3.3-12-4.9-1.4-.5-3.7-1.6-5.2-2.3-3-1.6-3.8-1.7-3.8-.7zM85.7 192.1c.7.7 1.5 1 1.8.7.3-.3-.2-.9-1.2-1.2-1.4-.6-1.5-.5-.6.5zM147 193.3c0 .8 1.5 2 3.3 2.7 1.7.7 4.6 1.8 6.2 2.5 1.7.8 5 2.1 7.5 3.1 2.5.9 5 2.1 5.7 2.6 2.3 1.8 11.3 4.6 11.8 3.7.4-.5-1.1-1.6-3.2-2.5-2.1-.9-5-2.3-6.5-3-1.4-.8-3.1-1.4-3.7-1.4-.6 0-3.4-1.1-6.2-2.5-2.9-1.3-5.6-2.2-6-1.9-.5.3-.9 0-.9-.5 0-.6-.7-1.1-1.5-1.1-.9 0-2.7-.7-4-1.6-2.2-1.4-2.5-1.4-2.5-.1zM93 196c0 .5.5 1 1.1 1 .5 0 .7-.5.4-1-.3-.6-.8-1-1.1-1-.2 0-.4.4-.4 1zM123 208.5c1.4.7 2.7 1.1 3 .9.6-.7-2.2-2.4-4-2.3-.9 0-.5.6 1 1.4zM151.1 208.6c.6.8 1.6 1.4 2.1 1.4s3.5 1.2 6.6 2.6c3.1 1.4 6.4 2.7 7.3 2.9.9.2 5 1.9 9 3.8 4.1 1.9 8.7 3.7 10.2 4.1 1.6.4 5.2 1.8 8 3.1 2.8 1.4 5.7 2.5 6.4 2.5.7 0 2.8.9 4.8 2 4.4 2.5 7.4 2.7 5.5.5-.7-.8-1.5-1.3-1.9-1-.4.2-2.7-.6-5.2-1.8-2.4-1.2-7.8-3.5-11.9-5.1-4.1-1.6-9.7-3.9-12.5-5.1-2.7-1.2-6.8-2.8-9-3.5-2.2-.7-4.4-1.6-5-2-.5-.4-2.8-1.3-5-2s-4.4-1.6-5-2c-.5-.4-2-1-3.3-1.3-1.9-.4-2.1-.3-1.1.9zM127 209.4c0 .2.7.7 1.6 1 .8.3 1.2.2.9-.4-.6-1-2.5-1.4-2.5-.6zM147 217.9c0 1 3 2.4 3.7 1.7.3-.2-.5-.9-1.6-1.6-1.2-.6-2.1-.7-2.1-.1zM157 222c0 .5.5 1 1 1 .6 0 1-.5 1-1 0-.6-.4-1-1-1-.5 0-1 .4-1 1zM167 225.4c0 .2.7.9 1.5 1.6.9.7 1.5.8 1.5.2 0-.5-.7-1.2-1.5-1.6-.8-.3-1.5-.4-1.5-.2zM181.2 232.2c.5 1.5 2.8 2.3 2.8 1 0-.5-.7-1.3-1.6-1.6-1-.4-1.4-.1-1.2.6zM188 235c0 .9 3.9 2.5 4.6 1.8.2-.3-.7-1-2.1-1.6-1.4-.6-2.5-.7-2.5-.2zM233.6 313.8c-.8 1.3 2 3.6 3.8 2.9.7-.3 1.7-.2 2.2.3 1.2 1 13.9 4.1 18.9 4.6 2.2.2 7.4.8 11.5 1.4 4.1.6 9.5 1 12 1 4.5 0 11.6.9 24 2.9 11.3 1.8 13.4 2.2 19.6 3.6 3.4.8 8.3 1.7 11 2 2.7.3 6 1 7.4 1.5 1.4.4 7 1.8 12.5 3 5.5 1.3 11.4 3.1 13 4 3 1.8 5.4 1.6 6.7-.4.7-1.1-2.4-2.9-10.2-5.9-7.4-2.7-32-8.5-39.5-9.2-3.8-.4-7.8-.9-9-1.1-7.5-1.5-13.3-2.3-15-2.3-2.3.1-10.3-.7-15.5-1.5-3.6-.6-6.5-.9-18-2.1-8.7-.8-12.1-1.3-17.2-2.4-12.2-2.7-17.5-3.4-18.2-2.3zM220.5 323.6c-1.5 1.1-1.2 1.4 2.6 2.4 2.4.6 5.1 1.3 6 1.6 1 .3 3 .6 4.5.9 1.6.2 7.4 1.3 12.9 2.4 5.5 1.1 13.1 2.3 17 2.6 3.8.4 7.3.9 7.6 1.1.4.2 2.9.6 5.6.9 2.6.3 5.5.7 6.3.8 3.4.8 10.9 1.7 17 2.1 7 .5 25 3.9 29.3 5.5 1.5.6 2.7.8 2.7.6 0-.3 1.6.1 3.5.9s3.5 1.3 3.5 1.1c0-.5 6.4 1.7 10.5 3.6 1.1.5 4 1.6 6.4 2.4 4 1.4 4.6 1.4 7-.2 2.4-1.5 2.4-1.7.6-2.4-1.1-.4-5.7-2.1-10.2-3.9-4.4-1.7-8.7-3.3-9.5-3.4-.7-.1-3.8-1-6.8-1.9-11-3.2-17.8-4.7-23.9-5.2-3.4-.3-6.6-.7-7.1-1-.5-.3-3.7-.8-7.2-1-3.5-.3-7.6-.8-9.2-1.1-2.7-.6-4.6-.8-20.1-1.9-6.4-.4-22.4-2.6-28.5-3.8-1.4-.3-4.5-.8-7-1.1-2.4-.4-4.9-1.1-5.5-1.5-1.9-1.5-6.2-1.8-8-.5zM208.6 331.9c-1.2 1.8.2 2.9 4.4 3.6 2.2.4 4 1 4 1.4 0 .4 1.5.8 3.3.9 1.7.1 6.1 1.1 9.7 2.1 6.4 1.8 16.1 3.9 23 4.8 1.9.3 4.3.9 5.2 1.4.9.5 3.3.9 5.3.9s5.5.4 7.8.9c3.6.9 18.6 3.3 28.2 4.6 1.7.2 3.9.6 5 .9 1.1.2 4.9.9 8.5 1.6 3.6.6 8.2 1.8 10.3 2.6 2.1.8 5.5 1.7 7.5 2 2 .3 4.2.9 4.7 1.3 2.1 1.6 10.5 3.3 13 2.7 3.3-.8 3.2-2.2-.5-4.1-1.6-.9-3-1.3-3-.9s-.6.2-1.3-.4c-.7-.6-2.4-1.2-3.7-1.5-1.4-.2-4.2-1.1-6.4-2-2.1-.9-4.6-1.7-5.5-1.7-.9 0-3.5-.7-5.8-1.5-4.3-1.5-8.2-2.3-14.3-3-1.9-.3-4.6-.7-6-1-1.4-.3-4.3-.7-6.5-1-2.2-.4-4.7-.7-5.5-.9-4.4-.8-11.2-1.7-17-2.1-3.6-.2-9.6-1.2-13.5-2-3.8-.9-8.8-1.8-11-2-2.2-.3-5.6-.8-7.5-1.2-1.9-.4-4.2-.7-5-.8-.8-.1-2.6-.6-4-1-1.4-.5-3.4-.9-4.5-1-1.1-.2-4.7-1-8-2-9.5-2.6-10.2-2.8-10.9-1.6zM195.6 342.5c.5 1.2 8.9 4.5 11.6 4.5.5 0 2.5.7 4.5 1.4 3.8 1.5 11.8 3.3 18 4 1.8.3 4 .7 5 1 1.8.5 7.5 1.5 12.3 2.1 1.4.2 4.8.8 7.5 1.4 2.8.6 6.1 1.3 7.5 1.6 1.4.3 4.5.7 7 1 2.5.2 7 .9 10 1.5s6.6 1.3 8 1.5c1.4.3 3.6.7 5 1 1.3.2 4 .7 6 1 3 .5 12.1 2.4 18.5 4 1.1.2 2.9.9 4 1.4 2.8 1.3 8.8 3.5 10 3.7.6.1 1.7.5 2.6.8.9.4 2.1 0 2.9-.9 1.7-2-.3-4.5-3.7-4.5-1.3 0-3.3-.4-4.3-1-1-.5-3.6-1.3-5.7-1.6-2.1-.3-4.6-1-5.5-1.5-1-.5-1.8-.8-1.8-.5 0 .3-2.1-.1-4.7-.9-2.5-.8-5-1.2-5.4-.9-.4.2-1 0-1.3-.5-.3-.4-1.6-.9-2.8-.9-1.3 0-5.2-.8-8.8-1.7-3.6-1-8.1-1.9-10-2-4.7-.4-11.1-1.4-11.9-2-1.4-.8-18.9-3.5-24.1-3.7-.8 0-4.2-.7-7.5-1.5-3.3-.9-7.6-1.7-9.5-1.9-6.1-.5-10.3-1.3-16-2.9-18.5-5.3-18.2-5.3-17.4-3zM183.6 350.2c-1.8 1-1.8 1.1.5 2.4 2.2 1.2 7.9 3.1 11.9 3.9.8.2 2.7.8 4.1 1.3 1.4.6 4.3 1.3 6.5 1.6 2.1.4 7.5 1.5 11.9 2.6 4.4 1 10 2.2 12.5 2.5 2.5.3 6.8 1 9.5 1.5 6.2 1.1 12.3 2.1 15 2.4 1.1.1 3.4.6 5 .9 1.7.4 4.1.9 5.5 1.2 5.9 1.1 13 2.8 20 4.7 4.1 1.2 8.4 2.2 9.5 2.3 1.1.1 3.7.9 5.9 1.8 2.1 1 4.2 1.7 4.7 1.7s3.4 1.3 6.5 3c5.7 3 8.4 3 8.4 0 0-1.2-1.7-2.5-4.9-3.9-2.7-1.1-5.4-2.1-5.9-2.1s-1.5-.7-2.2-1.5c-.7-.8-1.8-1.4-2.4-1.4-.6.1-1.8 0-2.6-.4-2.8-1.1-13.2-3.8-16.4-4.3-1.7-.3-4.3-.7-5.8-.9-1.5-.2-3.8-.9-5-1.6-1.3-.7-2.4-1.1-2.6-1-.1.2-2.8 0-6-.4-3.1-.4-7.2-.9-9-1.1-1.8-.1-3.6-.5-4-.8-.6-.4-2.9-.8-11.7-2.1-1.1-.2-4.5-.6-7.5-1s-6-1.1-6.6-1.6c-.6-.5-1.3-.7-1.6-.4-.3.3-3.5-.1-7.1-.9-3.7-.7-6.8-1.1-7.1-.9-.2.2-3.6-.5-7.4-1.7-3.9-1.2-7.9-2.3-8.9-2.5-1-.2-2-.4-2.3-.5-.3-.1-.9-.3-1.5-.4-.5-.1-2.4-.9-4-1.8-2.3-1.2-3.5-1.4-4.9-.6zM171.5 358.9c-.3.6.2 1.4 1.2 1.9 1.9 1 9.7 3.4 12.3 3.7.8.1 4.1 1 7.2 1.9 5.2 1.6 7 2 13.3 3.2 1.1.2 4 .8 6.5 1.4 9.1 2.2 12.5 2.8 13.2 2.4.4-.3 1.8.1 3 .8 1.3.7 2.7 1.1 3.2 1 .4-.2 1.3.2 2 .7 1.1.9 4.3 1.6 11.6 2.7 1.9.2 5.1 1 7 1.6 1.9.6 4.4 1.3 5.5 1.4 4.6.7 11.9 2.6 13 3.4.6.4 2.6 1.1 4.5 1.5 1.9.4 6.7 1.7 10.5 3 3.9 1.3 8.9 2.9 11.3 3.6 2.3.7 4.7 1.8 5.3 2.6 1.4 1.6 5.5 1.7 6.5.2 1.1-1.9-3.5-4.7-13.6-8.1-9.8-3.3-10.5-3.5-13-4-.8-.2-2.1-.7-2.7-1.1-.7-.5-1.3-.6-1.3-.2 0 .3-1.5-.1-3.3-.9-1.9-.7-5.8-1.7-8.8-2.1-3-.4-5.8-1-6.4-1.3-.5-.4-1.2-.7-1.5-.7-.3-.1-4.1-1-8.5-2s-8.7-1.9-9.5-2c-.8-.1-2.2-.5-3-.8-.8-.4-5.1-1.3-9.5-2.1-8.4-1.5-11.6-2.2-14.3-3-.9-.3-3.9-.8-6.7-1.1-2.7-.4-11.4-2.4-19.3-4.6-16.4-4.5-14.9-4.2-15.7-3zM157.2 369.5c-1.6 1.8-2.5 1.4 13.3 5.6 15.1 3.9 17.1 4.4 27.5 6.8 11.6 2.6 22.1 5.2 24.5 6.2 1.1.4 4 1 6.4 1.4 2.4.3 4.9.9 5.5 1.3.6.4 2.2.8 3.6.9 3.7.2 9 1.3 11.8 2.4 1.4.5 2.7.7 3 .4.3-.3 1.4.2 2.4 1.2 1 .9 2.1 1.4 2.4 1.1.3-.3 3.3.1 6.7.9 3.4.8 6.9 1.6 7.7 1.8.8.2 6.2 1.8 11.8 3.5 9.6 2.9 13.2 3.3 13.2 1.3 0-.4-6.1-2.8-13.5-5.2-7.4-2.5-13.5-4.8-13.5-5.2 0-.4-.9-.5-2-.2s-2.7 0-3.5-.7c-.8-.7-1.5-.9-1.5-.5s-.6.3-1.2-.2c-.7-.6-3.5-1.5-6.3-2.2-7.3-1.8-12.7-3.2-15.5-4.2-4-1.3-13.1-3-18-3.3-1.9-.2-4.4-.6-5.5-.9-2.8-.9-7.5-1.8-11-2.2-6.5-.7-12-1.7-13.6-2.5-.9-.5-1.9-.7-2.2-.4-.3.3-1.4.1-2.5-.5-1-.6-3.4-1.3-5.3-1.7-1.9-.3-3.8-.7-4.4-.8-.5-.1-1.5-.4-2-.8-.6-.3-2.8-.9-5-1.3s-4.4-1.1-5-1.5c-2.2-1.7-7-1.9-8.3-.5zM143.5 379.6c-2.2 1.6-1.1 2.1 9.5 3.8 1.4.3 3.7.9 5.1 1.5 1.5.5 4.7 1.3 7 1.6 2.4.3 6.2 1.2 8.4 2 2.2.7 6.3 1.6 9 2 2.8.3 5.7.9 6.5 1.2.8.3 2.2.7 3 .8.8.1 3.5.8 6 1.4 2.5.7 7.9 1.9 12 2.7 4.1.9 8 2 8.6 2.5.6.5 1.3.6 1.6.3.3-.3 2.6 0 4.9.7 2.4.6 5.5 1.3 6.9 1.4 1.4.1 4.8 1 7.6 1.9 2.8 1 5.5 1.6 6 1.5 1.5-.5 30.7 9.3 32.2 10.7 1 1.1 1.7 1.1 3.2.2 1.8-1.2 1.8-1.3.1-2.5-1-.7-4.2-2.2-7.2-3.4-4.9-1.9-6.8-2.5-10.5-3.3-.7-.1-1.8-.7-2.5-1.3-.8-.6-1.8-1.2-2.4-1.2-2.7-.3-8.5-1.5-13.1-2.7-5.1-1.5-8.1-2.2-11.9-3-1.1-.2-4-.8-6.5-1.4-2.5-.6-5.4-1.2-6.5-1.4-1.1-.2-2-.4-2-.6 0-.2-.7-.3-10-1.5-2.7-.3-6.1-1-7.5-1.5-2.8-1.1-10.1-2.7-15.7-3.6-2.1-.3-7.1-1.5-11.3-2.6-4.1-1.1-8.8-2.2-10.5-2.4-2.8-.5-10.1-2.7-13.5-4.1-2.7-1.1-4.7-1-6.5.3zM131.4 389.4c-1.5 1.2-1.7 1.7-.6 2.7.6.7 1.2 1 1.2.6 0-.3 1.2-.2 2.6.4 1.5.5 4.4 1.2 6.5 1.4 2.1.3 4.9.9 6.2 1.4 1.2.5 4 .9 6 .9 2.1 0 4.3.4 5 1 1.1.9 3.9 1.4 16.1 2.8 2.7.3 6.6 1.2 8.8 2 2.3.8 5.2 1.4 6.6 1.4 1.3 0 4.1.4 6.1.9 4.3 1.1 12.6 3 16.1 3.6 1.4.3 3.9.8 5.5 1.2 1.7.3 3.7.8 4.5.9 3 .5 10.7 2.7 19.3 5.5 4.9 1.6 9.5 2.9 10.3 2.9.8 0 1.4.4 1.4.9s1.2 1.1 2.8 1.4c1.5.3 4.3 1.6 6.3 3 3.7 2.5 7.9 2.2 7.9-.6 0-1.1-5.6-3.7-9-4.1-.3-.1-2.3-1-4.4-2-2.2-1-6.2-2.4-9-3.1-2.8-.7-6.4-1.8-8.1-2.3-2.5-.9-6.6-2.1-13-3.8-.5-.2-2.1-.5-3.5-.8-9.1-2-13.6-3-14-3.1-.3-.1-2.3-.5-4.5-.9s-5.8-1.1-8-1.6-5.6-1.2-7.5-1.4c-3.9-.5-8.7-1.4-11-2.1-.8-.2-4.4-.7-8-1.1-3.6-.3-8.1-1.2-10-2-1.9-.7-6-1.5-9.1-1.8-3.1-.2-6.4-.8-7.5-1.4-2.2-1.1-9.3-4.2-9.7-4.2-.2 0-1.2.6-2.3 1.4zM118.9 399.7c-.6.7-1 1.3-.8 1.4.2 0 1.1.2 1.9.5 1.5.4 10.7 2.6 18.5 4.5 2.2.5 5.4 1.2 7 1.5 5.2 1.1 6 1.2 6 1.4 0 .1.9.3 2 .4 1.1.2 3.4.6 5 1 6.6 1.5 8.1 1.8 11.5 2.3 1.9.3 9.4 2 16.5 3.9 13.4 3.5 15.6 4 21.4 4.9 3 .4 7.5 1.7 19.8 5.6 1.8.5 4 1.2 5 1.4 2.8.6 10.3 3.1 15.8 5.2 5.7 2.2 7.7 2.3 8.2.6.5-1.3-7-5.1-11.7-6-1.4-.2-3.6-1.1-4.9-2-1.3-.8-4.1-1.6-6.2-1.7-2.1 0-3.9-.4-3.9-.8 0-.7-7.8-3.3-12.6-4.2-1.1-.2-4.8-1.3-8.4-2.5-5.6-1.7-16-4.5-21-5.6-.8-.1-3.7-.6-6.4-.9-2.7-.4-5.6-1.1-6.5-1.5-1.8-1-6.2-1.8-19.6-3.6-2.7-.4-5.7-.9-6.5-1.2-2.5-1-4.3-1.4-8-1.8-1.9-.2-3.5-.4-3.5-.5 0-.1-3.9-1-8.8-1.9-7.2-1.5-8.9-1.5-9.8-.4zM108 407.8c0 .9 1.1 1.6 3.5 2.2.6.1 2.1.7 3.5 1.2 1.4.6 3.4 1.2 4.5 1.4 1.1.2 4 .8 6.5 1.4 6.1 1.6 7.7 1.9 13.9 3.1 2.9.6 6.5 1.5 8 2.1 1.4.6 4 1.2 5.6 1.4 1.7.2 6.6 1.3 11 2.3 4.4 1.1 12.5 2.9 18 4.2 5.5 1.2 10.5 2.4 11 2.5.6.2 1.9.5 3 .8 1.1.2 4.1 1.1 6.8 1.9 2.6.8 4.7 1.3 4.7 1.1 0-.3 1.3.2 2.9 1 1.6.9 3.1 1.3 3.4.9.4-.3 1.8.2 3.2 1.1 1.4.9 3 1.4 3.5 1.1.5-.3 1.1-.1 1.5.5.3.5 1.4 1 2.4 1 .9 0 5 1.6 9 3.6 6.4 3.1 7.5 3.4 8.8 2.2 1.2-1.3 1.2-1.6 0-2.7-.8-.6-2.3-1.4-3.3-1.6-1.1-.2-5-1.7-8.9-3.3-3.8-1.6-11.7-4.3-17.5-6.1-5.8-1.8-11.8-3.7-13.5-4.2-3.1-1.1-5.1-1.6-8.6-2.4-1.2-.2-8.3-1.8-15.8-3.6-7.5-1.7-14.9-3.3-16.5-3.5-1.5-.2-3.6-.6-4.6-.9-1-.3-6.7-1.4-12.6-2.4-10-1.7-25.6-5.1-31.1-6.7-1.3-.4-2.3-.2-2.3.4zM95.5 417c.3.5 1.4 1 2.4 1s3.1.7 4.8 1.5c1.6.8 4.3 1.6 5.9 1.8 1.7.2 3.4.6 3.9.9.6.3 4.4 1.3 8.5 2.3 4.1.9 10.9 2.5 15 3.6 4.1 1 11.1 2.6 15.4 3.4 4.4.9 8.2 1.7 8.5 1.9.3.2 2.2.7 4.1 1 2 .3 7.7 1.6 12.8 3 5 1.3 9.2 2.3 9.2 2.1 0-.3 1.1 0 2.6.5 1.4.6 3.9 1.2 5.7 1.5 1.7.4 3.7 1 4.3 1.6.7.5 1.6.9 2 .7 1.2-.3 5 .9 10.1 3.3 2.4 1 4.7 1.9 5.3 1.9.5 0 3.9 1.6 7.5 3.4l6.5 3.5 1.4-2.1c1.4-1.9 1.4-2.3-.2-3.3-.9-.7-5.3-2.4-9.7-3.9-4.4-1.4-8.9-3.1-10-3.6-2.2-.9-13.7-4.4-20-5.9-2.2-.6-6.7-1.7-10-2.6-3.3-.8-7.5-1.8-9.4-2.1-3.5-.6-3.9-.7-11.1-2.5-6.1-1.5-7.9-1.8-12.5-2.4-2.2-.2-5.6-1-7.5-1.5-1.9-.6-4.6-1.3-6-1.6-6.5-1.1-17.8-3.5-21-4.4-1.9-.5-4.8-1.2-6.5-1.4-1.6-.2-4.3-.9-5.8-1.5-3.5-1.4-7-1.4-6.2-.1zM84.5 426c.3.5 1.6 1 2.8.9 2.1 0 2.1-.1.2-.9-2.8-1.2-3.7-1.2-3 0zM89.4 428.2c-.3.4.3.8 1.3.8s2.9.3 4.2.7c1.6.4 2.2.2 1.8-.4-.9-1.4-6.6-2.2-7.3-1.1zM99.5 430.2c2.9 2.2 17.5 5.4 17.5 3.8 0-1.1-8.7-3.3-10.5-2.7-.8.4-1.5.2-1.5-.3s-.8-.8-1.7-.8c-1 0-2.7-.3-3.8-.7l-2-.7 2 1.4zM71 434.5c-1.5 1.8-1.2 2.2 2 2.8 1.4.3 4.3.8 6.5 1.2 2.2.4 7.2 1.8 11.1 3.1 3.9 1.3 9.5 2.6 12.5 3 3 .3 5.7.8 6.2 1.1.4.2 2.8.8 5.5 1.3 2.6.5 7.4 1.5 10.7 2.3 3.3.9 7.7 1.8 9.7 2.1 5.4.8 6.2 1 6.8 1.7.5.6 8.9 2.8 13 3.4 3.6.6 21.4 6 23.1 7.1.8.4 1.9.9 2.4 1.1 2.5.5 11.6 4.3 17 7.2 6.6 3.4 7.6 3.6 9.3 1.9.9-.9.3-1.7-2.3-3.5-1.9-1.3-3.7-2.3-4-2.3-.3 0-2.7-1-5.3-2.1-2.5-1.2-5.1-2.2-5.7-2.4-.5-.1-3.2-1.2-5.8-2.3-2.7-1.2-5.4-2.2-6.2-2.2-.7 0-2.8-.6-4.6-1.4-1.9-.7-4.3-1.7-5.4-2.1-1.1-.5-4.9-1.6-8.5-2.7-6.8-1.9-7.5-2.1-10-3.1-1.7-.6-6.5-1.4-12.7-2.1-2.4-.2-4.8-.8-5.5-1.2-.7-.5-1.7-.9-2.3-1.1-2.3-.5-13.2-2.5-15.6-2.8-1.4-.2-3.7-.8-5-1.3-1.3-.5-3.5-.8-4.8-.6-1.3.3-2.9 0-3.5-.5-.6-.4-2.7-1.1-4.6-1.5-3.7-.7-6-1.1-10-1.9-1.4-.3-4.5-1.3-6.9-2.1-5.4-2-5.6-2-7.1-.1zM121.8 435.2c.6.6 1.9 1.2 2.9 1.3 1 .1 3.6.6 5.8 1.2 2.2.6 7.6 1.8 12 2.8 9.2 2.1 28.5 6.9 33.3 8.4 1.7.5 3.2.8 3.2.6 0-.2 4.1 1.4 9.2 3.6 5 2.1 9.9 3.9 10.9 3.9s1.9.4 2.1.8c.2.4 3.7 2.4 7.8 4.4 5.6 2.8 7.8 3.4 9.2 2.7 1-.5 1.8-1.3 1.8-1.8 0-1.2-13.9-7.8-17.6-8.4-1.7-.3-4.2-1.2-5.5-2-1.3-.8-4.4-2.1-6.9-2.7-2.5-.7-5.4-1.6-6.5-2-5.2-2-8.3-2.9-12.3-3.4-2.4-.3-4.9-.9-5.5-1.3-.7-.4-1.4-.8-1.7-.9-.3 0-2.7-.4-5.5-.8-2.7-.4-5.9-1.1-7-1.7-1.1-.5-3.8-1.1-6-1.3-2.2-.3-4-.5-4-.6 0-.2-3.3-.9-7.5-1.5-1.9-.3-5.3-.9-7.5-1.5-5.3-1.3-6.1-1.2-4.7.2zM419 360l-2.3 1.8 2.9.6c3.8.7 11.3 1.6 19.1 2.1 3.5.2 8.2.9 10.5 1.6 4.3 1.1 7 1.7 11.8 2.4 6.3.9 9.5 1.7 10.7 2.7.7.6 1.3.8 1.3.5 0-.4 1.8 0 4 .8s4.4 1.4 4.8 1.5c1.5.1 7.7 2.3 8.8 3.1.6.5 2.4 1 4 1.2 1.6.2 4.7 1.5 6.9 3s4.5 2.7 5.2 2.7c.7 0 3.7 1.2 6.7 2.6 3 1.4 6.1 2.6 6.9 2.8.8.1 2.5.9 3.8 1.7 3.1 1.9 26.5 13.2 29.9 14.4.3.1 1.8.7 3.3 1.3 3.8 1.6 5.4 1.5 6.1-.3.4-1-.6-2-3.1-3-1.9-.8-3.8-1.5-4-1.5-.3 0-1.8-.9-3.4-2.1-1.6-1.1-2.9-1.7-2.9-1.3 0 .3-.6.2-1.3-.4-4.5-3.7-44.2-22.1-47.9-22.2-.9 0-1.8-.5-2-1.1-.2-.5-1-1.1-1.8-1.3-.8-.1-4.9-1.3-9-2.6-8.5-2.7-8.1-2.6-13.5-4-2.2-.6-5.1-1.2-6.5-1.4-3.5-.5-6.8-1.4-7.9-2-.5-.3-3.2-.8-6.1-1.1-2.9-.3-5.6-.7-6-1-.8-.5-7.6-1.5-14-2.1-1.9-.1-5.5-.5-8-.7-3.4-.4-5.2-.1-7 1.3zM404.9 370.9c-1.3 1.1-2.2 2.1-1.9 2.4.3.3 4.6.7 9.5 1 5 .3 11.7 1 15 1.5 3.3.6 7.6 1.3 9.5 1.6 6.9 1 14.6 2.8 18.3 4.2 2 .7 4.1 1.3 4.5 1.3 2.2-.4 5.2.3 6.4 1.3.7.7 2.4 1.5 3.8 1.6 1.4.2 2.9.8 3.4 1.3.6.5 1.6.9 2.4.9 1.2 0 4.3 1.2 10.7 4.1 1.1.5 2.9 1.1 4 1.3 1.1.2 4 1.3 6.5 2.4 2.5 1.1 6.5 2.8 9 3.7 2.5 1 5.9 2.4 7.7 3.1 1.7.8 3.4 1.4 3.8 1.4.4 0 3.6 1.3 7.2 3 3.5 1.6 6.7 3 7 3 .2 0 4.1 1.6 8.5 3.5 7.4 3.3 11.8 3.8 11.8 1.5 0-.5-2.1-1.9-4.7-3.1-2.7-1.1-7.7-3.4-11.3-5.1-3.6-1.6-7.8-3.6-9.5-4.3-10.3-4.7-15.2-6.8-16.3-7.1-.7-.1-5.4-1.9-10.5-4-13-5.3-27.7-10.5-31-11-1.5-.2-3.8-.9-5-1.6-1.2-.7-3.1-1.3-4.2-1.3-1.1-.1-3.1-.6-4.5-1-1.4-.5-3.4-.9-4.5-1.1-1.1-.1-3.1-.5-4.5-.8-2.6-.7-5.2-1.2-10.5-2.1-8.2-1.3-10.9-1.7-15.3-2-2.6-.2-6.5-.7-8.8-1-3.2-.4-4.7-.1-6.5 1.4zM391 382.9c-.9 1.8-.3 2 7.3 3 4.5.6 10.2 1.4 12.7 1.6 2.5.2 8.6 1.4 13.5 2.5 5 1.2 9.7 2.1 10.5 2.2.8 0 3.5.5 6 1 5.3 1.1 5.3 1.1 14.8 3.7 4 1 7.5 1.9 7.8 1.9.3 0 1.7.4 3.2 1 1.5.5 4.7 1.5 7.2 2.2 2.5.6 5.9 1.8 7.5 2.5 1.7.7 6.4 2.3 10.5 3.5 4.1 1.3 9.8 3.4 12.5 4.6 2.8 1.3 5.5 2.4 6.1 2.4.5 0 6.2 2.3 12.4 5.1 14 6.2 15.2 6.5 17.4 4.4 1.9-2 1.7-2.4-1.2-3-1.2-.2-4.2-1.3-6.8-2.4-2.6-1.2-5-2.1-5.4-2.1-.4 0-2.9-1-5.6-2.2-2.7-1.3-5.3-2.3-5.9-2.3-.5-.1-2.3-.8-4-1.7-2.4-1.2-8.8-3.7-11.5-4.3-1.1-.3-6.6-2.7-9.3-4-1.5-.7-5.3-1.9-8.5-2.6-3.1-.7-6.4-1.8-7.2-2.5-.8-.7-4.4-2-8-2.9-3.6-.9-6.9-2-7.5-2.3-.5-.4-1.4-.7-2-.8-1.2-.2-9.1-2.2-12-3-1.1-.3-3.3-.7-4.8-1-1.6-.2-3.3-.7-3.9-1-.6-.4-3.2-.9-5.7-1.1-2.5-.2-5.7-.6-7.1-.9-1.4-.3-4.1-.7-6-.9-1.9-.2-5.3-.6-7.5-.9-2.2-.3-7.3-.8-11.2-1-6.4-.5-7.4-.3-8.3 1.3zM378.8 392.6c-1.6 1.5-.7 2.4 2.5 2.4 1.7 0 5.2.5 7.7 1.1 2.4.5 6.7 1.2 9.5 1.4 2.7.2 7.3.9 10 1.5 4.9 1.2 12.4 2.5 19.5 3.5 1.9.3 4.2.8 5 1.1.8.3 5.1 1.4 9.5 2.4 11.8 2.8 16.6 4.1 20.3 5.6 1.8.8 5 1.7 7 2 2 .3 6.1 1.8 9.2 3.4 3 1.5 6.7 3 8.2 3.4 2.9.7 8.9 3.3 26.6 11.7 5.6 2.7 10.6 4.9 11.1 4.9s1.4-.7 2.1-1.5c1.4-1.7-.2-3.8-3.9-5-1.2-.4-5.8-2.4-10.2-4.6-4.3-2.1-8.2-3.9-8.7-3.9-.4 0-2.3-.8-4.2-1.9-5.4-2.8-37.8-13.5-39.6-13-.5.2-3.4-.6-6.4-1.8-3-1.1-7.1-2.3-9-2.6-1.9-.3-5.5-1.1-8-1.7-2.5-.7-6.6-1.3-9.1-1.5-2.6-.1-7.1-1-10-1.8-6-1.7-11.4-2.7-17.4-3.3-2.2-.2-5.3-.6-7-.9-8.3-1.2-14.1-1.6-14.7-.9zM366.6 401.9c-1.4.9-2.6 1.8-2.6 2.2 0 .3 3.3.9 7.3 1.3 13.1 1.2 13.8 1.3 21.7 3.1 1.4.3 4.8.7 7.5 1 2.8.3 6.8 1.1 9 1.7 2.2.6 7.8 1.9 12.5 3 4.7 1 10.3 2.3 12.5 2.8 2.2.6 5.4 1.3 7 1.6 1.7.3 5 1.4 7.5 2.4s7.9 2.8 12 4.1c4.1 1.3 9.3 3.2 11.5 4.3 2.2 1.1 4.7 2.2 5.5 2.3.9.1 3.8 1.2 6.5 2.5 2.8 1.2 5.2 2.2 5.5 2.3 1.1.1 8 2.9 14.7 6.1 8.1 3.9 8.1 3.9 10.7 1.9 1.8-1.4 1.7-1.5-2-3-2.1-.9-6.1-2.7-8.9-4-10.3-4.8-41.9-16.8-47.5-18-.8-.2-3.3-1-5.5-1.8-2.2-.9-6.5-2.1-9.5-2.8-3-.6-6.2-1.5-7.1-2-.9-.5-3.2-1.1-5-1.3-4.7-.7-7.6-1.4-11.6-2.7-1.9-.6-5.7-1.4-8.6-1.9-2.9-.4-6.3-1.1-7.7-1.4-2.5-.6-5.5-1.1-14.4-2.1-2.8-.4-5.3-.8-5.8-1.1-.7-.4-3.3-.9-10.4-1.8-1.2-.2-3.4.4-4.8 1.3zM353.3 411.7c-2.3.9-1.4 2 1.5 2 4.9-.1 18.2 1.8 24.7 3.5 2.2.6 5.8 1.2 8 1.3 4.9.4 8.3 1 15.8 3 3.1.8 6.1 1.4 6.5 1.3.4-.1 4 .8 8.1 2.1 4.1 1.2 8.3 2.4 9.5 2.5 1.1.1 2.8.5 3.6.8.8.3 10.3 3.4 21 6.8 10.7 3.5 20.2 6.9 21 7.6.8.7 2.9 1.6 4.5 2 1.7.4 7.3 2.9 12.6 5.5 9.8 5 12.3 5.7 13.4 3.8.8-1.2.2-2-1.8-2.3-.8-.1-2.6-.9-4-1.9-1.5-.9-4.8-2.6-7.4-3.6-2.6-1.1-7-3-9.8-4.2-2.7-1.3-5.5-2.4-6.1-2.5-.7-.1-3.8-1.4-7-2.8-3.3-1.4-8.1-3-10.8-3.6-2.7-.6-5.8-1.6-7-2.2-1.1-.7-2.5-1.3-3.1-1.4-.5-.1-3.7-.9-7-1.9-3.3-.9-7.9-2.1-10.3-2.6-2.4-.5-4.9-1.2-5.5-1.6-.7-.4-1.6-.8-2.2-.9-.5-.1-2.6-.5-4.5-.8-4.4-.8-8-1.5-10.5-2.1-9.7-2.4-15.7-3.6-19.5-4.1-2.5-.2-5.6-.7-7-1-4.6-1.1-7.5-1.5-10.7-1.7-1.8-.2-3.5-.6-3.9-1-.8-.8-10.2-.8-12.1 0zM342.5 419.9c-1 1.7.1 2.5 3.3 2.7 2.9.2 9.4 1.1 12.7 1.8 1.1.2 4.9.9 8.5 1.6 3.6.6 10.8 2.1 16 3.3 5.2 1.2 10.2 2.2 11 2.2.8 0 3.1.6 5 1.3 1.9.6 4.6 1.3 6 1.4 1.4.2 3.1.7 3.9 1.2.7.5 2.1 1 3 1.1 3.9.4 9.7 1.8 10.8 2.7.6.5 2.4 1.1 4 1.2 2.5.3 4.7 1 10.3 3.3.8.3 2.8.7 4.4.9 1.6.1 3.2.7 3.5 1.2.3.5 2.4 1.5 4.6 2.1 2.2.7 6.4 2.4 9.3 3.7 2.9 1.3 5.7 2.4 6.3 2.4.6 0 6.4 2.7 12.9 5.9 10.4 5.2 12.1 5.8 13.7 4.6 1-.7 1.6-1.5 1.3-1.7-.7-.4-8-4.3-17.5-9.2-4.4-2.2-9.4-4.6-11-5.2-11.8-4.6-19.3-7.1-23.5-7.9-.3-.1-3.9-1.2-8-2.5s-8.2-2.5-9-2.6c-.8-.2-6.9-1.7-13.5-3.4-6.6-1.8-13.2-3.3-14.7-3.5-1.5-.2-6.2-1.2-10.5-2.3-4.3-1.1-8.5-2-9.3-2-.8-.1-3.5-.6-6-1.2-4.5-1.2-8.3-1.9-13-2.5-1.4-.1-5-.6-8.1-1-4-.5-5.8-.4-6.4.4zM331.4 428.4c-2.5 1.9-1.9 2.3 4.6 2.9 6.8.7 10.2 1.3 12.9 2.2 2 .6 4.2 1 11.6 2 1.7.3 4.8.9 7 1.4 6 1.4 14.7 3.1 17.5 3.4 1.4.1 3 .5 3.5.9.6.3 4.4 1.3 8.5 2.3 11.7 2.6 22.4 5.7 23.8 6.9.8.5 2.3 1.1 3.5 1.3 1.1.2 2.6.8 3.4 1.4.7.6 1.3.8 1.3.5 0-.4 1-.1 2.3.6 1.2.7 2.6 1.1 3 1 .5-.1 2 .4 3.5 1.2 5.6 2.9 18.2 8.6 23.4 10.7 2.9 1.1 6.1 2.8 7.1 3.6.9.9 1.7 1.3 1.7.8 0-.4.6-.3 1.3.3.6.6 3 1.3 5.2 1.7l4 .6-2.4-2c-1.3-1.2-3-2.1-3.7-2.1-.8 0-3.1-1.1-5.2-2.4-2-1.3-5.3-3-7.2-3.7-1.9-.8-6.7-3.1-10.7-5.2-4-2-7.8-3.7-8.5-3.7-.7 0-3.3-1-5.8-2.2-2.5-1.2-4.7-2.2-5-2.3-.3 0-1.6-.4-3-.8s-4.3-1.3-6.5-1.9c-7.8-2.1-14-4-16-4.8-2.8-1.1-15.3-4.1-19.5-4.6-1.9-.3-4.8-.9-6.5-1.5-1.6-.6-4.1-1.3-5.5-1.5-1.4-.3-4.1-.9-6-1.4-2-.5-5.1-1.2-7-1.4-1.9-.3-5.7-1-8.5-1.6-5.9-1.4-9-2-12.8-2.5-1.5-.2-3.8-.6-5.1-.9-1.3-.3-3.1.1-4.2.8zM319.5 438.4c-1.9 1.4-1.7 1.5 3.5 1.6 5.9.2 7.6.4 15.5 2.1 2.8.6 6.6 1.2 8.5 1.5 7 .8 10.2 1.4 11.1 2 1 .6 3.8 1.2 8.4 1.9 1.7.2 5 1.1 7.4 1.9 2.4.9 4.6 1.4 5.1 1.1.4-.2 1.6.2 2.6 1s3.3 1.5 4.9 1.5c1.7 0 5 .9 7.4 2 2.4 1.1 5 2 5.8 2 .7 0 3.3.9 5.5 2 2.3 1.1 4.9 2 5.9 2 .9 0 3 .7 4.5 1.5 1.6.8 3.6 1.5 4.4 1.5.9 0 2 .4 2.5.8.6.4 3.5 1.6 6.5 2.6 3 1.1 6 2.2 6.5 2.6.6.4 3.8 1.7 7.3 3 3.4 1.2 6.2 2.6 6.2 3.1s.6.9 1.4.9c.8 0 4.7 1.6 8.6 3.6 6.4 3.3 7.3 3.5 8.7 2.1 1.3-1.3.7-1.9-5.9-5.1-4.1-2-7.9-3.6-8.4-3.6-.6 0-3.6-1.4-6.7-3.1-3.1-1.7-5.7-2.8-5.7-2.5 0 .3-1.6-.3-3.5-1.4-2-1.1-4.1-2-4.8-2-.7 0-3-.9-5.2-2s-4.4-2-5.1-2c-.6 0-4.4-1.4-8.4-3-4-1.7-8.1-3-9.1-3s-3.8-.9-6.1-1.9c-6.4-2.8-37.2-10.1-52.8-12.4-1.9-.3-4.7-.8-6.2-1.1-12.9-2.7-18-3-20.3-1.2zM309.1 445.3c-1 1.3-.6 1.6 2.9 2.2 2.3.4 4.4.5 4.6.2.3-.3 2-.1 3.7.3 1.8.5 5.7 1.2 8.7 1.5 3 .4 5.8.9 6.3 1.2.4.2 1.9.6 3.2.9 1.4.2 3.5.6 4.8.8 1.2.2 4.4 1.2 7.1 2.1 5.6 1.9 7.8 2.5 12.3 3.1 1.8.2 4.3.8 5.5 1.3 1.3.5 2.6.9 3 1 .4.1 2.8 1 5.2 2.1 2.4 1 4.6 1.6 4.9 1.3.3-.2 1.8.4 3.3 1.4 1.6 1 3.1 1.7 3.4 1.6.9-.4 12 2.9 12 3.6 0 .4 1.2.6 2.8.6 1.5-.1 3.4.4 4.2 1.1.8.6 4.9 2.3 9 3.8 9 3.3 14.3 5.3 19 7.4 1.9.8 3.5 1.4 3.5 1.1 0-.2 1.6.6 3.6 1.9 2 1.2 4.3 2.2 5 2.2.8.1 2.7 1.1 4.3 2.4 1.6 1.4 3.5 2.2 4.3 1.9 2.7-1 1.2-2.9-3.7-4.7-2.7-1-5-2.2-5-2.6 0-.5-1-1.1-2.2-1.5-1.3-.3-4.1-1.5-6.3-2.5-9.1-4.1-13.5-6-14.3-6-.5 0-2.7-.9-5-2-6.1-3-17.1-7-21.7-8-2.2-.5-5.8-1.6-8-2.6-2.2-.9-5.3-2-7-2.4-1.6-.4-6.9-1.9-11.8-3.4-4.8-1.4-10.2-2.7-12-2.9-1.7-.3-3.9-.7-4.7-1-3.9-1.4-8.9-2.6-13.5-3.1-2.7-.3-6.6-1-8.5-1.6-1.9-.6-5.5-1.3-8-1.6-6.3-.7-9.2-1.2-11.6-1.9-1.2-.4-2.5-.1-3.3.8zM296.9 455.9l-2.4 2 4.5.2c5.1.2 5.3.3 9.8 1.3 4.4 1 6.3 1.3 14.8 2.4 3.8.5 7.9 1.4 9 1.9 1.6.9 5.5 1.9 11.4 2.9.8.1 3 .7 4.8 1.2 1.7.6 3.2.9 3.2.6 0-.3.9 0 2.1.6 2.2 1.2 5.2 2 8.4 2.3 1.1.1 2.2.4 2.5.7.5.6 22.1 7.2 29.5 9.1 2.1.6 4.5 1.4 5.1 2 .7.5 2 1.1 3 1.3 1.7.4 9.1 3.2 21.4 8.2 2.5 1 7.7 3.5 11.7 5.5 4.6 2.2 7.7 3.2 8.5 2.7 1.9-1.2-.8-3.1-12.7-8.8-13.3-6.4-18.6-8.6-22.6-9.5-1.9-.4-4.4-1.4-5.6-2.2-1.2-.8-2.8-1.6-3.5-1.7-.7-.2-2-.5-2.8-.8-1.9-.7-9.8-2.9-11.9-3.3-.9-.2-3.4-1-5.6-1.7-8.7-3.2-11.1-3.9-13.8-4.3-1.6-.2-4.3-.9-6-1.4-6.4-2.1-25.1-6.2-34.7-7.7-1.9-.3-6.4-1.2-10-2-3.6-.9-7.4-1.7-8.5-2-1.1-.2-3.2-.6-4.6-.9-1.7-.4-3.4.1-5 1.4zM286 464.5c-.7.8-.9 1.5-.4 1.6.5.1 2.7.3 4.9.4 2.2.2 6 .7 8.5 1.1 2.5.5 5 .9 5.5.9.6.1 2.1.5 3.5 1 1.4.4 3.6.9 5 1 3.9.4 9.2 1.5 10.4 2.3 1.5.9 3.2 1.2 8.9 1.8 2.7.2 5.8.9 6.9 1.5 1.1.6 2.9 1.2 4.1 1.5 7.2 1.3 21 5.4 22.1 6.5.6.5 2.2.9 3.6.9 1.5 0 3 .3 3.4.7.4.5 1.2.9 1.7.9.5.1 1 .2 1.2.4.1.1.9.3 1.7.5.8.2 4.4 1.4 8 2.8 3.6 1.4 6.8 2.5 7.3 2.6.4 0 2 .7 3.6 1.5 1.5.8 3.9 1.7 5.2 2 1.3.2 4.6 1.4 7.2 2.5 2.7 1.2 5.3 2.1 5.9 2.1.5 0 2.2.9 3.7 1.9 2.4 1.7 7.6 4 13.4 5.8 3.1 1 1.9-2.2-1.5-3.9-5.6-2.7-12.7-5.8-13.6-5.8-.5 0-2.4-.8-4.3-1.7-1.9-1-4-1.8-4.7-1.9-.7-.1-3.2-1.1-5.5-2.2-2.4-1.1-6.3-2.5-8.7-3.2-2.5-.7-4.9-1.6-5.5-2-1.7-1.3-26.8-8.6-32.9-9.6-1.6-.2-3.4-.8-4.1-1.4-.7-.5-2.4-1.1-3.9-1.2-1.4-.1-2.6-.5-2.6-.8 0-.3-1-.7-2.2-.8-4.6-.3-12.4-1.9-17.3-3.5-2.7-.9-6.8-1.8-9-2-2.2-.3-6.7-1.1-10-2-3.3-.9-8.4-1.9-11.4-2.2-3-.3-5.8-.8-6.2-1-.4-.3-1.2.2-1.9 1zM274 473.5c-.8.9-.2 1.2 2.2 1.2 4-.1 12.4 1 13.5 1.6.5.3 2.6.8 4.8 1.1 13.2 1.9 17.2 2.7 28.2 5.5 6.6 1.7 13.3 3.5 14.8 4.1 1.5.6 4.4 1.3 6.4 1.6 2 .3 4.1 1 4.8 1.6.6.5 2.2 1.1 3.5 1.2 1.3.2 3 .6 3.8.8.8.3 3.5 1.1 6 1.9 2.5.7 7.7 2.5 11.5 4 3.9 1.5 10.2 3.9 14 5.3 3.9 1.5 8.3 3.3 9.8 4.1 1.6.8 3.5 1.5 4.3 1.5.8 0 5.5 2 10.5 4.5 7.1 3.5 9.5 4.3 10.5 3.4 1.6-1.3.2-3.9-2.1-3.9-.8 0-3.6-1.1-6.3-2.5-2.8-1.4-5.4-2.5-5.8-2.5-.5 0-3.1-1.1-5.8-2.5-2.7-1.4-5.6-2.5-6.3-2.5-.8 0-3.8-1.1-6.6-2.4-2.9-1.3-7-2.9-9.2-3.6-2.2-.7-4.5-1.6-5-2.1-.6-.4-2.2-1-3.5-1.3-6.4-1.2-21.9-5.4-23.4-6.3-.6-.4-1.5-.8-2.1-.8-2.6-.2-10.2-1.8-11.6-2.6-1.8-.9-6.9-2-11.5-2.3-1.7-.2-3.6-.6-4.3-1.1-.7-.4-3-1-5-1.2-2-.3-3.8-.8-4.1-1.2-.3-.3-1.1-.7-1.8-.9-2.7-.5-8-1.3-11.7-1.7-2.2-.2-4-.5-4-.6 0-.2-4.1-.9-6.7-1.2-1-.1-1.8-.4-1.8-.7 0-1.1-9-.7-10 .5zM265 479.9c0 1.3 3.1 2.2 10.5 3.2 3.3.4 8.7 1.4 12 2.3 5.2 1.4 10.1 2.3 15.5 3 .8.1 2.7.7 4.1 1.3 1.4.6 3.9 1.3 5.5 1.6 1.6.3 5.6 1.3 8.9 2.3 3.3.9 6.7 1.8 7.5 1.9 2.4.3 7.4 1.7 8.5 2.4.6.3 1.2.6 1.5.6.3 0 1.9.5 3.5 1.1 1.7.6 4.8 1.7 7 2.3 2.2.7 4.9 1.6 6 2 1.1.5 3.8 1.4 6 2.1 2.2.7 4.3 1.7 4.6 2.2.3.5 1.9 1 3.5 1.2 1.6.2 7.7 2.6 13.4 5.4 5.8 2.7 13 6.1 16.1 7.5 3.1 1.4 6.2 3.2 7.1 4 1.2 1.2 1.8 1.3 3.9.2l2.4-1.3-2.8-1.3c-1.5-.7-2.7-1.6-2.7-2.1 0-.4-.3-.7-.7-.6-.5.1-4.6-1.6-9.3-3.9-10.2-5-25.5-11.3-27.4-11.3-.7 0-1.9-.6-2.5-1.4-.6-.7-3.5-1.6-6.4-1.9-2.9-.3-6.8-1.4-8.7-2.5-1.9-1.1-5.3-2.4-7.5-2.8-2.2-.4-5.6-1.3-7.5-2-1.9-.8-4.6-1.6-6-1.8-1.4-.3-2.5-.5-2.5-.6 0-.1-.7-.3-1.5-.5-.8-.1-3.5-.8-5.9-1.5-2.4-.6-6.1-1.3-8.2-1.6-2.1-.3-5.8-1.2-8.1-2-2.4-.9-6.2-1.7-8.5-1.9-2.3-.2-5-.8-6.1-1.4-1.1-.6-2.2-.8-2.4-.5-.3.2-1.8-.1-3.4-.7-3.4-1.4-4-1.5-11.7-2.3-3.2-.3-6.2-.8-6.8-1.1-.5-.4-.9-.2-.9.4zM253.4 489.1c-.9 1.6-.3 1.8 6.2 2.4 8.7.7 13.5 1.5 15.3 2.4.9.4 3.2.8 5.1 1 1.9.1 5.6.8 8.2 1.6 2.7.8 4.8 1.2 4.8.9 0-.3.8 0 1.8.5 1.7.9 4.2 1.6 9.7 2.6 1.8.3 6.2 1.7 11 3.6 1.1.4 3.4 1 5 1.2 1.7.3 4.4 1.1 6 1.8 1.7.7 3.3 1.3 3.7 1.3.3.1 1 .4 1.4.8.4.5 1.9.8 3.4.8 1.4 0 3.1.5 3.6 1 .6.6 2 1.2 3.1 1.4 1.1.3 5.6 1.9 9.9 3.6 11.1 4.5 12.7 5.1 14.6 6.1 1 .5 2.7.9 3.9.9 1.1 0 3.2.9 4.6 2 1.4 1.1 3.2 2 4 2 .7 0 3.3 1 5.6 2.2 2.3 1.2 5 2.2 5.9 2.3 1 .1 2.6.8 3.5 1.7 3 2.5 4.1 2.9 4.9 1.6.4-.7.3-1-.1-.5-.5.4-1.5.1-2.4-.7-1.9-1.7-19-10.6-19.9-10.4-.4.1-3.2-1.1-6.2-2.7-4.9-2.6-9.7-4.5-22.5-9.1-2.2-.8-5.5-2.2-7.3-3-1.8-.9-4-1.3-4.8-1-.8.3-1.4.1-1.4-.5s-.4-.8-1-.4c-.5.3-3.2-.6-6-2s-5.4-2.4-5.8-2.1c-.6.4-7.6-1.2-11.2-2.6-4.6-1.8-9.1-2.9-13.5-3.4-2.7-.3-5.2-.9-5.5-1.4-.3-.4-2.5-1-5-1.3-2.5-.3-6.3-1.2-8.6-2-2.2-.8-6.7-1.8-10-2.2-3.2-.3-7.6-.8-9.6-1-2-.3-4 0-4.4.6zM242.7 496.6c-.4.4-.7 1.1-.7 1.5 0 .7 6.7 2.1 12 2.4 1.4.1 3 .3 3.5.5.6.2 1.5.4 2 .5.6.1 1.7.4 2.5.7 1.4.5 12.4 2.8 16 3.3.8.1 2.6.7 4 1.2 1.4.6 2.8.9 3.2.6.4-.2 1.9.3 3.2 1.2 1.4.9 3 1.4 3.6 1 .6-.4 1.7-.1 2.5.5.8.7 1.5 1 1.5.6 0-.3 1.2-.1 2.8.5 1.5.6 4.2 1.3 6.1 1.6 1.9.3 4.9 1.4 6.8 2.4 1.8 1 3.8 1.9 4.4 1.9.8 0 6.7 2.1 22.4 8 1.1.4 2.3.8 2.7 1 .4.1 6 2.6 12.5 5.6 6.5 3 12.3 5.4 12.9 5.4.6 0 1.9.9 2.8 1.9 1 1.1 2.4 1.7 3.2 1.4.8-.3 2.4.3 3.4 1.2 1.1 1 2 1.5 2 1.1 0-.3 1.1.1 2.5 1 1.3.9 3 1.4 3.7 1.2 1.1-.4-9.3-7.8-11-7.8-1 0-10.1-4.7-11.7-6-.6-.5-2.4-1.1-3.9-1.2-1.4-.1-2.6-.5-2.6-.8 0-.8-7.7-4.2-9.9-4.5-.9-.1-3.4-1-5.6-1.9-2.2-1-4.4-1.9-5-2-.5-.2-2.8-1-5-2-2.1-.9-4.7-1.8-5.7-1.9-1-.2-2.1-.6-2.4-1-.4-.4-1.7-.7-2.9-.7-1.1 0-2.6-.5-3.3-1.2-.7-.7-1.2-.9-1.2-.4 0 .4-1 0-2.2-.8-1.2-.9-3.1-1.6-4.2-1.6s-4.5-.8-7.5-1.9c-8.6-2.9-20.7-6.2-24.2-6.6-1.8-.3-5.5-1.1-8.3-1.9-2.8-.8-8.2-1.9-12.1-2.6-3.8-.6-8.1-1.3-9.5-1.6-1.4-.3-2.9-.2-3.3.2zM508 492.1c0 .5-.4.8-.9.5-.5-.3-1.2.1-1.5.9-.4 1.3-.2 1.4 1.4.5 1.8-1 2.8-3 1.5-3-.3 0-.5.5-.5 1.1zM44 457.6c0 .3 2 1.4 4.5 2.5 2.4 1.1 4.7 2.4 5 2.9.4.6 1 .8 1.5.5.5-.3 1.8-.1 2.8.4 1.1.6 3.6 1.1 5.6 1.3 2 .1 3.6.5 3.6.9s.8.7 1.8.7c.9 0 2.8.2 4.2.5 2.5.5 10.9 2.5 14.5 3.4 1.1.2 3.8.6 6 .8 9.2.9 19.1 2.3 20.5 2.9 2.4 1 8 1.4 8 .6 0-.8-9.6-2.8-16.5-3.4-2.2-.2-4.7-.6-5.5-1-.8-.3-2.8-.7-4.5-1-1.6-.2-3.2-.5-3.5-.7-.3-.1-2.1-.3-4-.5-5.4-.4-9-1.1-15.5-3.3-3.3-1.1-7.8-2.3-10-2.7-2.2-.3-4.4-1-5-1.4-1-.8-11.2-4-12.7-4-.4 0-.8.3-.8.6zM92 481c0 .6 1.3 1 2.9 1 1.6 0 4.8.7 7.2 1.5 2.4.9 5.5 1.8 6.9 2 3.1.4 23.8 6.3 26.5 7.5 1.1.5 3.4 1.1 5 1.5 1.7.3 3.7.7 4.5.9.8.2 2.9.9 4.5 1.5 4.4 1.8 11.5 4.2 13.7 4.6 1.6.4 1.8.2.7-1.1-.6-.8-1.4-1.2-1.7-1-.2.3-1.9-.2-3.6-1.1-1.7-.9-3.5-1.7-4.1-1.8-.5-.1-1.7-.4-2.5-.7-8-3-20.9-6.9-22.5-6.9-1.1 0-4-.7-6.5-1.5-2.5-.9-4.9-1.7-5.5-1.8-.5-.2-2.3-.6-4-1-17.8-4.5-21.5-5.1-21.5-3.6zM192.6 514.5c-2.2.7-4.9 2.3-6 3.8-1.9 2.6-1.9 2.8-.3 6.2.9 2 2.7 4 3.9 4.5 1.3.6 3.7 1.8 5.3 2.9 3.2 1.9 15.3 4.6 19.5 4.3 3.6-.3 5.1-2.2 4.2-5.5-.8-3-7.2-11.6-8.6-11.7-.5 0-1.8-.8-2.9-1.8-3-2.7-10.5-4-15.1-2.7zM254.5 524c-.3.5-.1 1 .4 1 .6 0 1.1-.5 1.1-1 0-.6-.2-1-.4-1-.3 0-.8.4-1.1 1zM257.5 526c.4.6 1.1.8 1.6.5 1.4-.9 1.1-1.5-.7-1.5-.8 0-1.2.5-.9 1zM261 526.1c0 .5.4.9.9.9s1.7.3 2.7.7c1.1.4 1.5.3 1.1-.4-.9-1.4-4.7-2.4-4.7-1.2zM267 527.5c0 .6 3.8 2.2 7.5 3.1 3.6.9 3.1-1.2-.6-2.5-3.4-1.2-6.9-1.5-6.9-.6zM282.2 532.6c1.8 1.8 8.3 3 7.3 1.4-.3-.6-1.9-1-3.6-1-1.6 0-2.9-.5-2.9-1 0-.6-.5-1-1.2-1-.8 0-.7.6.4 1.6zM295 537.1c0 .5.9.9 2 .9s2 .4 2 .9c0 .6.9.9 2 .8 2.6-.2 1.2-1.5-2.8-2.6-2-.6-3.2-.6-3.2 0zM308 542c0 .5.7 1 1.6 1 .8 0 1.2-.5.9-1-.3-.6-1-1-1.6-1-.5 0-.9.4-.9 1zM322 555.8c0 .5.7.9 1.5.9s1.2-.4.9-.9c-.3-.4-.9-.8-1.5-.8-.5 0-.9.4-.9.8zM327 557.5c0 .7 4 2.6 6.7 3.1 1.5.3 2.2.1 1.8-.6-.3-.5-1.5-1-2.5-1s-2.2-.5-2.5-1c-.6-1-3.5-1.4-3.5-.5zM337.5 562c.3.5 1 1 1.6 1 .5 0 .9-.5.9-1 0-.6-.7-1-1.6-1-.8 0-1.2.4-.9 1zM341.6 563.8c-.3.5 1 1.3 2.9 1.6 1.9.4 3.5 1.1 3.5 1.6s.7.7 1.5.4c.8-.4 1.5-.2 1.5.4 0 .5 1.2 1.3 2.7 1.7 1.5.3 4.5 1.5 6.7 2.6 2.2 1 4.4 1.9 4.8 1.9.5 0 3.6 1.3 7 3 5.4 2.7 8.6 3.2 7.3 1-.2-.4-5.1-2.5-10.7-4.5-5.7-2.1-10.7-4.1-11.3-4.5-.5-.5-3.5-1.7-6.5-2.8-3-1-6.2-2.2-7.1-2.6-1-.4-2-.3-2.3.2z"/></svg>